SplineFontDB: 3.2
FontName: fontello
FullName: fontello
FamilyName: fontello
Weight: Book
Copyright: Copyright (C) 2020 by original authors @ fontello.com
Version: 1.0
ItalicAngle: 0
UnderlinePosition: 10
UnderlineWidth: 0
Ascent: 850
Descent: 150
InvalidEm: 0
sfntRevision: 0x00010000
LayerCount: 2
Layer: 0 1 "+BBcEMAQ0BD0EOAQ5 +BD8EOwQwBD0A" 1
Layer: 1 1 "+BB8ENQRABDUENAQ9BDgEOQAA +BD8EOwQwBD0A" 0
XUID: [1021 553 101781372 15407]
StyleMap: 0x0040
FSType: 0
OS2Version: 1
OS2_WeightWidthSlopeOnly: 0
OS2_UseTypoMetrics: 0
CreationTime: 1586510163
ModificationTime: 1623955038
PfmFamily: 17
TTFWeight: 400
TTFWidth: 5
LineGap: 0
VLineGap: 0
Panose: 2 0 5 3 0 0 0 0 0 0
OS2TypoAscent: 850
OS2TypoAOffset: 0
OS2TypoDescent: -150
OS2TypoDOffset: 0
OS2TypoLinegap: 90
OS2WinAscent: 853
OS2WinAOffset: 0
OS2WinDescent: 154
OS2WinDOffset: 0
HheadAscent: 850
HheadAOffset: 0
HheadDescent: -150
HheadDOffset: 0
OS2SubXSize: 634
OS2SubYSize: 700
OS2SubXOff: 0
OS2SubYOff: 140
OS2SupXSize: 634
OS2SupYSize: 700
OS2SupXOff: 0
OS2SupYOff: 480
OS2StrikeYSize: 49
OS2StrikeYPos: 258
OS2Vendor: 'PfEd'
OS2CodePages: 00000001.00000000
OS2UnicodeRanges: 00000000.00000000.00000000.00000000
Lookup: 4 0 1 "'liga' Standard Ligatures in Latin lookup 0" { "'liga' Standard Ligatures in Latin lookup 0 subtable"  } [' RQD' ('DFLT' <'dflt' > 'latn' <'dflt' > ) 'liga' ('DFLT' <'dflt' > 'latn' <'dflt' > ) ]
MarkAttachClasses: 1
DEI: 91125
TtTable: prep
SVTCA[y-axis]
MPPEM
PUSHW_1
 200
GT
IF
PUSHB_2
 1
 1
INSTCTRL
EIF
PUSHB_1
 1
PUSHW_2
 2048
 2048
MUL
WCVTF
PUSHB_2
 0
 5
WS
PUSHB_3
 0
 1
 0
LOOPCALL
PUSHB_2
 0
 5
WS
PUSHB_4
 10
 2
 1
 8
LOOPCALL
PUSHB_2
 0
 5
WS
PUSHB_4
 14
 0
 1
 8
LOOPCALL
PUSHB_2
 0
 6
WS
PUSHW_3
 704
 1
 9
LOOPCALL
PUSHB_2
 0
 7
WS
PUSHW_3
 64
 1
 9
LOOPCALL
PUSHB_2
 3
 0
WCVTP
PUSHB_2
 36
 1
GETINFO
LTEQ
IF
PUSHB_1
 64
GETINFO
IF
PUSHB_2
 3
 100
WCVTP
PUSHB_2
 38
 1
GETINFO
LTEQ
IF
PUSHW_3
 2176
 1
 1088
GETINFO
MUL
EQ
IF
PUSHB_2
 3
 0
WCVTP
EIF
EIF
EIF
EIF
PUSHB_4
 12
 2
 1
 12

StartChar: search
Encoding: 59392 59392 1
Width: 928
Flags: W
LayerCount: 2
Fore
SplineSet
643 386 m 0,0,1
 643 489 643 489 569 562 c 128,-1,2
 495 635 495 635 393 636 c 128,-1,3
 291 637 291 637 216 562 c 128,-1,4
 141 487 141 487 143 386 c 128,-1,5
 145 285 145 285 216 209 c 128,-1,6
 287 133 287 133 393 136 c 128,-1,7
 499 139 499 139 569 209 c 128,-1,8
 639 279 639 279 643 386 c 0,0,1
929 -79 m 0,9,10
 929 -108 929 -108 907 -129 c 128,-1,11
 885 -150 885 -150 856 -150 c 128,-1,12
 827 -150 827 -150 807 -129 c 2,13,-1
 616 62 l 1,14,15
 516 -7 516 -7 393 -7 c 0,16,17
 313 -7 313 -7 240 24 c 128,-1,18
 167 55 167 55 115 108 c 128,-1,19
 63 161 63 161 31 233 c 128,-1,20
 -1 305 -1 305 0 386 c 128,-1,21
 1 467 1 467 31 538 c 128,-1,22
 61 609 61 609 115 664 c 128,-1,23
 169 719 169 719 240 748 c 128,-1,24
 311 777 311 777 393 779 c 128,-1,25
 475 781 475 781 545 748 c 128,-1,26
 615 715 615 715 671 664 c 128,-1,27
 727 613 727 613 755 538 c 128,-1,28
 783 463 783 463 786 386 c 0,29,30
 786 263 786 263 717 163 c 1,31,-1
 908 -28 l 2,32,33
 929 -49 929 -49 929 -79 c 0,9,10
EndSplineSet
EndChar

StartChar: ie
Encoding: 59393 59393 2
Width: 944
Flags: W
LayerCount: 2
Fore
SplineSet
844 850 m 2,0,1
 737 849 737 849 563 744 c 1,2,3
 473 757 473 757 384 738 c 128,-1,4
 295 719 295 719 223 670 c 0,5,6
 148 619 148 619 105 543 c 0,7,8
 58 460 58 460 54 358 c 1,9,10
 86 408 86 408 144 468 c 0,11,12
 208 533 208 533 276 582 c 0,13,14
 354 638 354 638 421 659 c 1,15,-1
 421 646 l 1,16,17
 367 619 367 619 294.5 546.5 c 128,-1,18
 222 474 222 474 156 381 c 0,19,20
 86 282 86 282 45 189 c 0,21,22
 0 84 0 84 0 7 c 0,23,24
 1 -81 1 -81 61 -127 c 0,25,26
 92 -151 92 -151 148 -150 c 0,27,28
 195 -149 195 -149 254 -129 c 0,29,30
 304 -113 304 -113 350 -89 c 0,31,32
 391 -67 391 -67 405 -51 c 1,33,34
 451 -59 451 -59 494 -59 c 0,35,36
 593 -59 593 -59 681 -21 c 0,37,38
 767 16 767 16 829.5 82.5 c 128,-1,39
 892 149 892 149 918 233 c 1,40,-1
 617 233 l 1,41,42
 607 190 607 190 575.5 165.5 c 128,-1,43
 544 141 544 141 496 141 c 0,44,45
 425 141 425 141 395 185 c 0,46,47
 370 222 370 222 370 292 c 1,48,-1
 931 292 l 1,49,50
 945 391 945 391 907 484 c 0,51,52
 871 572 871 572 796 637.5 c 128,-1,53
 721 703 721 703 625 731 c 1,54,55
 720 794 720 794 794 814 c 0,56,57
 878 837 878 837 914 797 c 0,58,59
 954 752 954 752 924 627 c 1,60,-1
 944 627 l 1,61,62
 970 709 970 709 960 766.5 c 128,-1,63
 950 824 950 824 906 840 c 0,64,65
 880 850 880 850 848 850 c 2,66,-1
 844 850 l 2,0,1
492 547 m 0,67,68
 552 547 552 547 586 513 c 128,-1,69
 620 479 620 479 620 418 c 1,70,-1
 368 418 l 1,71,72
 368 477 368 477 401 512 c 128,-1,73
 434 547 434 547 492 547 c 0,67,68
125 125 m 1,74,75
 169 62 169 62 235 17.5 c 128,-1,76
 301 -27 301 -27 381 -46 c 1,77,78
 344 -74 344 -74 287 -92 c 0,79,80
 233 -110 233 -110 184 -112 c 128,-1,81
 135 -114 135 -114 115 -98 c 0,82,83
 80 -69 80 -69 85 -9 c 0,84,85
 89 47 89 47 125 125 c 1,74,75
EndSplineSet
EndChar

StartChar: ios
Encoding: 59394 59394 3
Width: 1000
Flags: W
LayerCount: 2
Fore
SplineSet
773 319 m 0,0,1
 772 398 772 398 824 459 c 0,2,3
 850 491 850 491 881 509 c 1,4,-1
 881 509 l 1,5,6
 843 565 843 565 780 590 c 0,7,8
 739 607 739 607 698 608 c 0,9,10
 666 611 666 611 628 601 c 0,11,12
 606 595 606 595 566 580 c 0,13,14
 543 570 543 570 533 567 c 0,15,16
 517 562 517 562 506 562 c 128,-1,17
 495 562 495 562 478 567 c 0,18,19
 467 571 467 571 444 580 c 0,20,21
 412 593 412 593 395 598 c 0,22,23
 366 606 366 606 342 606 c 0,24,25
 278 605 278 605 222.5 571.5 c 128,-1,26
 167 538 167 538 135 480 c 0,27,28
 93 408 93 408 93 309 c 0,29,30
 93 222 93 222 124 129 c 0,31,32
 152 43 152 43 198 -23 c 0,33,34
 240 -84 240 -84 268 -110 c 0,35,36
 312 -151 312 -151 356 -150 c 0,37,38
 375 -149 375 -149 394 -143 c 0,39,40
 406 -140 406 -140 427 -131 c 0,41,42
 453 -120 453 -120 467 -116 c 0,43,44
 492 -109 492 -109 519 -109 c 128,-1,45
 546 -109 546 -109 569 -116 c 0,46,47
 583 -120 583 -120 606.5 -130 c 128,-1,48
 630 -140 630 -140 643 -143 c 0,49,50
 663 -149 663 -149 685 -149 c 0,51,52
 717 -148 717 -148 746 -130 c 0,53,54
 770 -114 770 -114 795 -85 c 0,55,56
 811 -65 811 -65 838 -26 c 0,57,58
 867 17 867 17 889 67 c 0,59,60
 900 93 900 93 907 115 c 1,61,-1
 907 116 l 1,62,-1
 906 117 l 1,63,64
 866 135 866 135 834 166 c 0,65,66
 774 228 774 228 773 319 c 0,0,1
647 690 m 0,67,68
 675 724 675 724 689 764 c 0,69,70
 704 808 704 808 699 850 c 1,71,72
 661 848 661 848 620 827 c 128,-1,73
 579 806 579 806 552 775 c 128,-1,74
 525 744 525 744 510 705 c 0,75,76
 493 660 493 660 499 620 c 1,77,78
 539 616 539 616 581 637 c 0,79,80
 619 657 619 657 647 690 c 0,67,68
EndSplineSet
EndChar

StartChar: warning
Encoding: 59395 59395 4
Width: 1000
Flags: W
LayerCount: 2
Fore
SplineSet
571 83 m 2,0,-1
 571 189 l 2,1,2
 571 197 571 197 566 202 c 128,-1,3
 561 207 561 207 554 207 c 2,4,-1
 446 207 l 2,5,6
 439 207 439 207 434 202 c 128,-1,7
 429 197 429 197 429 189 c 2,8,-1
 429 83 l 2,9,10
 429 75 429 75 434 70 c 128,-1,11
 439 65 439 65 446 64 c 2,12,-1
 554 64 l 2,13,14
 561 64 561 64 566 70 c 128,-1,15
 571 76 571 76 571 83 c 2,0,-1
570 291 m 2,16,-1
 580 548 l 2,17,18
 580 554 580 554 575 558 c 0,19,20
 568 564 568 564 561 564 c 2,21,-1
 439 564 l 2,22,23
 432 564 432 564 425 558 c 0,24,25
 420 554 420 554 420 546 c 2,26,-1
 429 291 l 2,27,28
 429 286 429 286 435 282 c 128,-1,29
 441 278 441 278 448 279 c 2,30,-1
 551 279 l 2,31,32
 559 279 559 279 564 282 c 128,-1,33
 569 285 569 285 570 291 c 2,16,-1
563 813 m 2,34,-1
 991 27 l 2,35,36
 1011 -8 1011 -8 990 -43 c 0,37,38
 980 -60 980 -60 964 -69 c 128,-1,39
 948 -78 948 -78 929 -79 c 2,40,-1
 71 -79 l 2,41,42
 53 -79 53 -79 36 -69 c 128,-1,43
 19 -59 19 -59 10 -43 c 0,44,45
 -11 -8 -11 -8 9 27 c 2,46,-1
 438 813 l 2,47,48
 447 830 447 830 464 840 c 128,-1,49
 481 850 481 850 500 850 c 128,-1,50
 519 850 519 850 536 840 c 128,-1,51
 553 830 553 830 563 813 c 2,34,-1
EndSplineSet
EndChar

StartChar: chrome
Encoding: 59396 59396 5
Width: 1000
Flags: W
LayerCount: 2
Fore
SplineSet
498 850 m 0,0,1
 386 849 386 849 285 801 c 0,2,3
 182 752 182 752 111 664 c 1,4,-1
 265 427 l 1,5,6
 284 482 284 482 325 522.5 c 128,-1,7
 366 563 366 563 420 583 c 128,-1,8
 474 603 474 603 532 597 c 2,9,-1
 946 575 l 1,10,11
 914 639 914 639 865 691 c 0,12,13
 815 745 815 745 750 783 c 0,14,15
 635 850 635 850 498 850 c 0,0,1
82 624 m 1,16,17
 42 564 42 564 22 495 c 0,18,19
 0 425 0 425 0 350 c 0,20,21
 0 227 0 227 56 119 c 0,22,23
 111 14 111 14 207.5 -56 c 128,-1,24
 304 -126 304 -126 423 -144 c 1,25,-1
 551 108 l 1,26,27
 494 97 494 97 438 112 c 128,-1,28
 382 127 382 127 338 164 c 128,-1,29
 294 201 294 201 270 254 c 2,30,-1
 82 624 l 1,16,17
967 530 m 1,31,-1
 685 515 l 1,32,33
 723 471 723 471 737.5 415 c 128,-1,34
 752 359 752 359 742 302 c 128,-1,35
 732 245 732 245 698 198 c 2,36,-1
 472 -149 l 1,37,38
 544 -154 544 -154 614.5 -137.5 c 128,-1,39
 685 -121 685 -121 750 -83 c 0,40,41
 856 -22 856 -22 922 81 c 0,42,43
 985 181 985 181 997.5 299.5 c 128,-1,44
 1010 418 1010 418 967 530 c 1,31,-1
500 519 m 256,45,46
 454 519 454 519 415.5 496 c 128,-1,47
 377 473 377 473 354 434.5 c 128,-1,48
 331 396 331 396 331 350 c 128,-1,49
 331 304 331 304 354 265.5 c 128,-1,50
 377 227 377 227 415.5 204 c 128,-1,51
 454 181 454 181 500 181 c 128,-1,52
 546 181 546 181 584.5 204 c 128,-1,53
 623 227 623 227 646 265.5 c 128,-1,54
 669 304 669 304 669 350 c 128,-1,55
 669 396 669 396 646 434.5 c 128,-1,56
 623 473 623 473 584.5 496 c 128,-1,57
 546 519 546 519 500 519 c 256,45,46
EndSplineSet
EndChar

StartChar: popup
Encoding: 59397 59397 6
Width: 928
Flags: W
LayerCount: 2
Fore
SplineSet
911 797 m 1,0,-1
 911 127 l 1,1,-1
 688 127 l 1,2,-1
 688 -97 l 1,3,-1
 18 -97 l 1,4,-1
 18 574 l 1,5,-1
 241 574 l 1,6,-1
 241 797 l 1,7,-1
 911 797 l 1,0,-1
576 16 m 1,8,-1
 576 127 l 1,9,-1
 241 127 l 1,10,-1
 241 351 l 1,11,-1
 130 351 l 1,12,-1
 130 16 l 1,13,-1
 576 16 l 1,8,-1
799 239 m 1,14,-1
 799 574 l 1,15,-1
 353 574 l 1,16,-1
 353 239 l 1,17,-1
 799 239 l 1,14,-1
EndSplineSet
EndChar

StartChar: jsfiddle
Encoding: 59398 59398 7
Width: 1142
Flags: W
LayerCount: 2
Fore
SplineSet
1004 419 m 0,0,1
 1066 394 1066 394 1105 338 c 128,-1,2
 1144 282 1144 282 1143 214 c 0,3,4
 1143 123 1143 123 1077 58 c 128,-1,5
 1011 -7 1011 -7 918 -7 c 2,6,-1
 227 -7 l 1,7,8
 132 -1 132 -1 66 63 c 128,-1,9
 0 127 0 127 0 220 c 0,10,11
 0 281 0 281 31 333 c 128,-1,12
 62 385 62 385 113 415 c 1,13,14
 106 437 106 437 106 461 c 0,15,16
 106 525 106 525 152 570 c 128,-1,17
 198 615 198 615 263 616 c 0,18,19
 316 616 316 616 359 583 c 1,20,21
 401 669 401 669 483 722 c 128,-1,22
 565 775 565 775 665 774 c 0,23,24
 758 774 758 774 836 729 c 128,-1,25
 914 684 914 684 960 607 c 128,-1,26
 1006 530 1006 530 1005 439 c 2,27,-1
 1005 429 l 2,28,29
 1005 422 1005 422 1004 419 c 0,0,1
261 271 m 0,30,31
 261 203 261 203 308 163 c 128,-1,32
 355 123 355 123 424 123 c 0,33,34
 501 123 501 123 558 179 c 1,35,-1
 532 210 l 2,36,37
 515 230 515 230 507 238 c 1,38,39
 470 202 470 202 427 202 c 0,40,41
 396 202 396 202 375 221 c 128,-1,42
 354 240 354 240 353.5 269.5 c 128,-1,43
 353 299 353 299 375 318 c 128,-1,44
 397 337 397 337 426 337 c 0,45,46
 450 337 450 337 473 325 c 128,-1,47
 496 313 496 313 514 295 c 128,-1,48
 532 277 532 277 550 253 c 128,-1,49
 568 229 568 229 588 207 c 128,-1,50
 608 185 608 185 631 165 c 128,-1,51
 654 145 654 145 686 135 c 128,-1,52
 718 125 718 125 753 123 c 0,53,54
 821 123 821 123 867 163 c 128,-1,55
 913 203 913 203 914 269 c 0,56,57
 914 337 914 337 867 376 c 128,-1,58
 820 415 820 415 752 416 c 0,59,60
 672 416 672 416 617 362 c 1,61,-1
 634 343 l 2,62,63
 643 333 643 333 653 320 c 128,-1,64
 663 307 663 307 669 301 c 1,65,66
 706 337 706 337 748 337 c 0,67,68
 777 337 777 337 800 319 c 128,-1,69
 823 301 823 301 822 272 c 0,70,71
 822 240 822 240 801 221 c 128,-1,72
 780 202 780 202 749 202 c 0,73,74
 725 202 725 202 703 213 c 128,-1,75
 681 224 681 224 663 244 c 2,76,-1
 626 286 l 1,77,-1
 587 332 l 2,78,79
 567 356 567 356 544 373 c 128,-1,80
 521 390 521 390 490 404 c 128,-1,81
 459 418 459 418 424 416 c 0,82,83
 356 416 356 416 309 377 c 128,-1,84
 262 338 262 338 261 271 c 0,30,31
EndSplineSet
EndChar

StartChar: rss
Encoding: 59399 59399 8
Width: 785
Flags: W
LayerCount: 2
Fore
SplineSet
214 100 m 256,0,1
 214 55 214 55 183 24 c 128,-1,2
 152 -7 152 -7 107 -7 c 128,-1,3
 62 -7 62 -7 31 24 c 128,-1,4
 0 55 0 55 0 100 c 128,-1,5
 0 145 0 145 31 176 c 128,-1,6
 62 207 62 207 107 207 c 128,-1,7
 152 207 152 207 183 176 c 128,-1,8
 214 145 214 145 214 100 c 256,0,1
500 31 m 0,9,10
 501 16 501 16 490.5 4.5 c 128,-1,11
 480 -7 480 -7 464 -7 c 2,12,-1
 389 -7 l 2,13,14
 375 -7 375 -7 365 2 c 128,-1,15
 355 11 355 11 354 25 c 0,16,17
 342 153 342 153 251 244 c 128,-1,18
 160 335 160 335 32 347 c 0,19,20
 18 348 18 348 9 358 c 128,-1,21
 0 368 0 368 0 382 c 2,22,-1
 0 457 l 2,23,24
 0 473 0 473 12 483 c 0,25,26
 21 493 21 493 36 493 c 2,27,-1
 39 493 l 1,28,29
 128 486 128 486 209 448 c 128,-1,30
 290 410 290 410 353.5 347 c 128,-1,31
 417 284 417 284 455 202 c 128,-1,32
 493 120 493 120 500 31 c 0,9,10
786 30 m 0,33,34
 787 15 787 15 776.5 4 c 128,-1,35
 766 -7 766 -7 750 -7 c 2,36,-1
 670 -7 l 2,37,38
 656 -7 656 -7 645 3 c 128,-1,39
 634 13 634 13 634 26 c 0,40,41
 628 146 628 146 578 254 c 128,-1,42
 528 362 528 362 449 442 c 128,-1,43
 370 522 370 522 261 571 c 128,-1,44
 152 620 152 620 34 628 c 0,45,46
 20 628 20 628 10 639 c 128,-1,47
 0 650 0 650 0 663 c 2,48,-1
 0 743 l 2,49,50
 0 758 0 758 10.5 768.5 c 128,-1,51
 21 779 21 779 36 779 c 2,52,-1
 37 779 l 1,53,54
 184 771 184 771 317 712 c 128,-1,55
 450 653 450 653 554.5 548.5 c 128,-1,56
 659 444 659 444 719 310 c 128,-1,57
 779 176 779 176 786 30 c 0,33,34
EndSplineSet
EndChar

StartChar: codepen
Encoding: 59400 59400 9
Width: 988
Flags: W
LayerCount: 2
Fore
SplineSet
988 506 m 2,0,1
 988 507 988 507 988 507 c 1,2,-1
 987 508 l 1,3,-1
 987 512 l 1,4,5
 986 512 986 512 986 514 c 2,6,-1
 981 524 l 1,7,-1
 979 526 l 2,8,9
 979 527 979 527 978 528 c 2,10,-1
 977 529 l 2,11,12
 977 530 977 530 976 530 c 2,13,-1
 972 534 l 1,14,-1
 970 535 l 2,15,16
 970 536 970 536 970 536 c 1,17,-1
 518 837 l 2,18,19
 507 844 507 844 494.5 844 c 128,-1,20
 482 844 482 844 471 837 c 2,21,-1
 16 534 l 2,22,23
 16 533 16 533 15 533 c 2,24,-1
 7 524 l 1,25,-1
 4 519 l 2,26,27
 4 517 4 517 3 517 c 1,28,29
 3 515 3 515 2 514 c 2,30,-1
 2 512 l 2,31,32
 1 510 1 510 1 508.5 c 128,-1,33
 1 507 1 507 0 506 c 2,34,-1
 0 194 l 2,35,36
 1 193 1 193 1 191.5 c 128,-1,37
 1 190 1 190 2 189 c 2,38,-1
 2 187 l 2,39,40
 3 186 3 186 3 183 c 1,41,42
 4 183 4 183 4 181 c 2,43,-1
 5 180 l 2,44,45
 5 179 5 179 5.5 178 c 128,-1,46
 6 177 6 177 6.5 176.5 c 128,-1,47
 7 176 7 176 9 174 c 2,48,-1
 11 171 l 2,49,50
 12 171 12 171 12 170 c 2,51,-1
 14 168 l 2,52,53
 16 168 16 168 16 166 c 2,54,-1
 18 165 l 2,55,56
 19 165 19 165 19 165 c 1,57,-1
 19 164 l 1,58,-1
 471 -137 l 2,59,60
 481 -144 481 -144 494 -144 c 128,-1,61
 507 -144 507 -144 518 -137 c 2,62,-1
 973 167 l 2,63,64
 973 168 973 168 974 168 c 2,65,-1
 978 172 l 2,66,67
 979 173 979 173 979 174 c 0,68,69
 981 176 981 176 981.5 176.5 c 128,-1,70
 982 177 982 177 982.5 178 c 128,-1,71
 983 179 983 179 983 180 c 2,72,-1
 984 181 l 1,73,-1
 987 189 l 1,74,-1
 987 192 l 1,75,-1
 988 194 l 1,76,-1
 988 506 l 2,0,1
537 722 m 1,77,-1
 869 501 l 1,78,-1
 721 401 l 1,79,-1
 537 524 l 1,80,-1
 537 722 l 1,77,-1
452 722 m 1,81,-1
 452 524 l 1,82,-1
 268 401 l 1,83,-1
 119 501 l 1,84,-1
 452 722 l 1,81,-1
85 421 m 1,85,-1
 191 350 l 1,86,-1
 85 279 l 1,87,-1
 85 421 l 1,85,-1
452 -22 m 1,88,-1
 119 200 l 1,89,-1
 268 299 l 1,90,-1
 452 176 l 1,91,-1
 452 -22 l 1,88,-1
494 250 m 1,92,-1
 344 350 l 1,93,-1
 494 450 l 1,94,-1
 644 350 l 1,95,-1
 494 250 l 1,92,-1
537 -22 m 1,96,-1
 537 176 l 1,97,-1
 721 299 l 1,98,-1
 869 200 l 1,99,-1
 537 -22 l 1,96,-1
903 279 m 1,100,-1
 797 350 l 1,101,-1
 903 421 l 1,102,-1
 903 279 l 1,100,-1
EndSplineSet
EndChar

StartChar: tag
Encoding: 59401 59401 10
Width: 857
Flags: W
LayerCount: 2
Fore
SplineSet
250 600 m 0,0,1
 250 630 250 630 229 651 c 128,-1,2
 208 672 208 672 179 671 c 128,-1,3
 150 670 150 670 128 651 c 128,-1,4
 106 632 106 632 107 600 c 128,-1,5
 108 568 108 568 128 550 c 128,-1,6
 148 532 148 532 179 529 c 128,-1,7
 210 526 210 526 229 550 c 128,-1,8
 248 574 248 574 250 600 c 0,0,1
845 279 m 0,9,10
 845 249 845 249 825 228 c 2,11,-1
 551 -46 l 2,12,13
 529 -67 529 -67 499.5 -67 c 128,-1,14
 470 -67 470 -67 450 -46 c 2,15,-1
 51 353 l 2,16,17
 30 374 30 374 15 410 c 128,-1,18
 0 446 0 446 0 475 c 2,19,-1
 0 707 l 2,20,21
 0 736 0 736 21 757 c 128,-1,22
 42 778 42 778 71 779 c 2,23,-1
 304 779 l 2,24,25
 333 779 333 779 369 764 c 128,-1,26
 405 749 405 749 426 728 c 2,27,-1
 825 329 l 2,28,29
 845 308 845 308 845 279 c 0,9,10
EndSplineSet
EndChar

StartChar: android
Encoding: 59402 59402 11
Width: 1000
Flags: W
LayerCount: 2
Fore
SplineSet
844 538 m 0,0,1
 818 538 818 538 799.5 519.5 c 128,-1,2
 781 501 781 501 781 475 c 2,3,-1
 781 225 l 2,4,5
 781 199 781 199 799.5 181 c 128,-1,6
 818 163 818 163 844 163 c 128,-1,7
 870 163 870 163 888 181 c 128,-1,8
 906 199 906 199 906 225 c 2,9,-1
 906 475 l 2,10,11
 906 501 906 501 887.5 519.5 c 128,-1,12
 869 538 869 538 844 538 c 0,0,1
94 538 m 0,13,14
 68 538 68 538 49.5 519.5 c 128,-1,15
 31 501 31 501 31 475 c 2,16,-1
 31 225 l 2,17,18
 31 199 31 199 49.5 181 c 128,-1,19
 68 163 68 163 94 163 c 128,-1,20
 120 163 120 163 138 181 c 128,-1,21
 156 199 156 199 156 225 c 2,22,-1
 156 475 l 2,23,24
 156 501 156 501 137.5 519.5 c 128,-1,25
 119 538 119 538 94 538 c 0,13,14
188 131 m 2,26,27
 188 93 188 93 215.5 65.5 c 128,-1,28
 243 38 243 38 281 38 c 2,29,-1
 313 38 l 1,30,-1
 313 -88 l 2,31,32
 313 -113 313 -113 331.5 -131.5 c 128,-1,33
 350 -150 350 -150 375.5 -150 c 128,-1,34
 401 -150 401 -150 419.5 -131.5 c 128,-1,35
 438 -113 438 -113 438 -88 c 2,36,-1
 438 38 l 1,37,-1
 500 38 l 1,38,-1
 500 -88 l 2,39,40
 500 -114 500 -114 518.5 -132 c 128,-1,41
 537 -150 537 -150 563 -150 c 128,-1,42
 589 -150 589 -150 607 -132 c 128,-1,43
 625 -114 625 -114 625 -88 c 2,44,-1
 625 38 l 1,45,-1
 656 38 l 2,46,47
 695 38 695 38 722.5 65.5 c 128,-1,48
 750 93 750 93 750 131 c 2,49,-1
 750 475 l 1,50,-1
 188 475 l 1,51,-1
 188 131 l 2,26,27
585 763 m 1,52,-1
 624 839 l 2,53,54
 626 841 626 841 625 844.5 c 128,-1,55
 624 848 624 848 621 849.5 c 128,-1,56
 618 851 618 851 614.5 850 c 128,-1,57
 611 849 611 849 610 846 c 2,58,-1
 570 769 l 1,59,60
 521 788 521 788 469.5 788 c 128,-1,61
 418 788 418 788 367 769 c 1,62,-1
 327 846 l 2,63,64
 324 852 324 852 317 849 c 0,65,66
 314 848 314 848 313 844.5 c 128,-1,67
 312 841 312 841 313 839 c 2,68,-1
 353 763 l 1,69,70
 286 733 286 733 241.5 672.5 c 128,-1,71
 197 612 197 612 189 538 c 1,72,-1
 748 538 l 1,73,74
 740 612 740 612 696 672.5 c 128,-1,75
 652 733 652 733 585 763 c 1,52,-1
344 586 m 256,76,77
 325 586 325 586 311.5 599 c 128,-1,78
 298 612 298 612 298 631 c 128,-1,79
 298 650 298 650 311.5 663.5 c 128,-1,80
 325 677 325 677 344 677 c 128,-1,81
 363 677 363 677 376 663.5 c 128,-1,82
 389 650 389 650 389 631 c 128,-1,83
 389 612 389 612 376 599 c 128,-1,84
 363 586 363 586 344 586 c 256,76,77
594 586 m 256,85,86
 575 586 575 586 561.5 599 c 128,-1,87
 548 612 548 612 548 631 c 128,-1,88
 548 650 548 650 561.5 663.5 c 128,-1,89
 575 677 575 677 594 677 c 128,-1,90
 613 677 613 677 626 663.5 c 128,-1,91
 639 650 639 650 639 631 c 128,-1,92
 639 612 639 612 626 599 c 128,-1,93
 613 586 613 586 594 586 c 256,85,86
EndSplineSet
EndChar

StartChar: play
Encoding: 59403 59403 12
Width: 705
Flags: W
LayerCount: 2
Fore
SplineSet
18 797 m 1,0,-1
 688 351 l 1,1,-1
 18 -97 l 1,2,-1
 18 797 l 1,0,-1
EndSplineSet
EndChar

StartChar: html5
Encoding: 59404 59404 13
Width: 785
Flags: W
LayerCount: 2
Fore
SplineSet
631 517 m 1,0,-1
 640 615 l 1,1,-1
 146 615 l 1,2,-1
 172 317 l 1,3,-1
 514 317 l 1,4,-1
 502 189 l 1,5,-1
 392 160 l 1,6,-1
 282 189 l 1,7,-1
 275 267 l 1,8,-1
 177 267 l 1,9,-1
 190 112 l 1,10,-1
 392 57 l 1,11,-1
 394 57 l 1,12,-1
 594 112 l 1,13,-1
 622 416 l 1,14,-1
 263 416 l 1,15,-1
 254 517 l 1,16,-1
 631 517 l 1,0,-1
0 779 m 1,17,-1
 786 779 l 1,18,-1
 714 -24 l 1,19,-1
 392 -114 l 1,20,-1
 71 -24 l 1,21,-1
 0 779 l 1,17,-1
EndSplineSet
EndChar

StartChar: github
Encoding: 59405 59405 14
Width: 928
Flags: W
LayerCount: 2
Fore
SplineSet
357 171 m 0,0,1
 357 149 357 149 350 126 c 128,-1,2
 343 103 343 103 326 83 c 128,-1,3
 309 63 309 63 286 64 c 128,-1,4
 263 65 263 65 245 83 c 128,-1,5
 227 101 227 101 221 126 c 128,-1,6
 215 151 215 151 214 171 c 128,-1,7
 213 191 213 191 221 217 c 128,-1,8
 229 243 229 243 245 260 c 128,-1,9
 261 277 261 277 286 279 c 128,-1,10
 311 281 311 281 326 260 c 128,-1,11
 341 239 341 239 350 217 c 128,-1,12
 359 195 359 195 357 171 c 0,0,1
714 171 m 0,13,14
 714 149 714 149 707 126 c 128,-1,15
 700 103 700 103 683 83 c 128,-1,16
 666 63 666 63 643 64 c 128,-1,17
 620 65 620 65 602 83 c 128,-1,18
 584 101 584 101 578 126 c 128,-1,19
 572 151 572 151 571 171 c 128,-1,20
 570 191 570 191 578 217 c 128,-1,21
 586 243 586 243 602 260 c 128,-1,22
 618 277 618 277 643 279 c 128,-1,23
 668 281 668 281 683 260 c 128,-1,24
 698 239 698 239 707 217 c 128,-1,25
 716 195 716 195 714 171 c 0,13,14
804 171 m 0,26,27
 804 238 804 238 765 285 c 128,-1,28
 726 332 726 332 661 332 c 0,29,30
 638 332 638 332 552 320 c 0,31,32
 512 314 512 314 464 314 c 128,-1,33
 416 314 416 314 377 320 c 0,34,35
 292 332 292 332 268 332 c 0,36,37
 202 332 202 332 164 285 c 128,-1,38
 126 238 126 238 125 171 c 0,39,40
 125 122 125 122 143 86 c 128,-1,41
 161 50 161 50 188 28 c 128,-1,42
 215 6 215 6 256 -5 c 128,-1,43
 297 -16 297 -16 334 -22 c 128,-1,44
 371 -28 371 -28 417 -26 c 2,45,-1
 511 -26 l 2,46,47
 557 -26 557 -26 594 -22 c 128,-1,48
 631 -18 631 -18 672 -5 c 128,-1,49
 713 8 713 8 741 28 c 128,-1,50
 769 48 769 48 786 86 c 128,-1,51
 803 124 803 124 804 171 c 0,26,27
929 270 m 0,52,53
 929 154 929 154 895 85 c 0,54,55
 873 42 873 42 836 11 c 128,-1,56
 799 -20 799 -20 757 -37 c 128,-1,57
 715 -54 715 -54 662 -64 c 128,-1,58
 609 -74 609 -74 566 -76 c 128,-1,59
 523 -78 523 -78 473 -79 c 0,60,61
 430 -79 430 -79 394 -77 c 128,-1,62
 358 -75 358 -75 312 -70 c 128,-1,63
 266 -65 266 -65 227 -53 c 128,-1,64
 188 -41 188 -41 150 -25 c 128,-1,65
 112 -9 112 -9 83 21 c 128,-1,66
 54 51 54 51 35 85 c 0,67,68
 0 154 0 154 0 270 c 0,69,70
 0 402 0 402 76 491 c 1,71,72
 61 536 61 536 61 585 c 0,73,74
 61 650 61 650 89 707 c 1,75,76
 150 707 150 707 195 685 c 128,-1,77
 240 663 240 663 301 616 c 1,78,79
 383 636 383 636 473 636 c 0,80,81
 556 636 556 636 629 618 c 1,82,83
 688 664 688 664 734 685 c 128,-1,84
 780 706 780 706 839 707 c 1,85,86
 868 650 868 650 868 585 c 0,87,88
 868 537 868 537 853 492 c 1,89,90
 929 402 929 402 929 270 c 0,52,53
EndSplineSet
EndChar

StartChar: trash
Encoding: 59406 59406 15
Width: 785
Flags: W
LayerCount: 2
Fore
SplineSet
286 439 m 2,0,-1
 286 118 l 2,1,2
 286 110 286 110 281 105 c 128,-1,3
 276 100 276 100 268 100 c 2,4,-1
 232 100 l 2,5,6
 224 100 224 100 219 105 c 128,-1,7
 214 110 214 110 214 118 c 2,8,-1
 214 439 l 2,9,10
 214 447 214 447 219 452 c 128,-1,11
 224 457 224 457 232 457 c 2,12,-1
 268 457 l 2,13,14
 276 457 276 457 281 452 c 128,-1,15
 286 447 286 447 286 439 c 2,0,-1
429 439 m 2,16,-1
 429 118 l 2,17,18
 429 110 429 110 424 105 c 128,-1,19
 419 100 419 100 411 100 c 2,20,-1
 375 100 l 2,21,22
 367 100 367 100 362 105 c 128,-1,23
 357 110 357 110 357 118 c 2,24,-1
 357 439 l 2,25,26
 357 447 357 447 362 452 c 128,-1,27
 367 457 367 457 375 457 c 2,28,-1
 411 457 l 2,29,30
 419 457 419 457 424 452 c 128,-1,31
 429 447 429 447 429 439 c 2,16,-1
571 439 m 2,32,-1
 571 118 l 2,33,34
 571 110 571 110 566 105 c 128,-1,35
 561 100 561 100 554 100 c 2,36,-1
 518 100 l 2,37,38
 510 100 510 100 505 105 c 128,-1,39
 500 110 500 110 500 118 c 2,40,-1
 500 439 l 2,41,42
 500 447 500 447 505 452 c 128,-1,43
 510 457 510 457 518 457 c 2,44,-1
 554 457 l 2,45,46
 561 457 561 457 566 452 c 128,-1,47
 571 447 571 447 571 439 c 2,32,-1
643 35 m 2,48,-1
 643 564 l 1,49,-1
 143 564 l 1,50,-1
 143 35 l 2,51,52
 143 23 143 23 147 13 c 128,-1,53
 151 3 151 3 155 -2 c 128,-1,54
 159 -7 159 -7 161 -7 c 2,55,-1
 625 -7 l 2,56,57
 627 -7 627 -7 631 -2 c 128,-1,58
 635 3 635 3 639 13 c 128,-1,59
 643 23 643 23 643 35 c 2,48,-1
268 636 m 1,60,-1
 518 636 l 1,61,-1
 491 701 l 2,62,63
 487 706 487 706 482 707 c 2,64,-1
 305 707 l 2,65,66
 299 706 299 706 295 701 c 2,67,-1
 268 636 l 1,60,-1
786 618 m 2,68,-1
 786 582 l 2,69,70
 786 574 786 574 781 569 c 128,-1,71
 776 564 776 564 768 564 c 2,72,-1
 714 564 l 1,73,-1
 714 35 l 2,74,75
 714 -11 714 -11 688 -45 c 128,-1,76
 662 -79 662 -79 625 -79 c 2,77,-1
 161 -79 l 2,78,79
 124 -79 124 -79 98 -46 c 128,-1,80
 72 -13 72 -13 71 33 c 2,81,-1
 71 564 l 1,82,-1
 18 564 l 2,83,84
 10 564 10 564 5 569 c 128,-1,85
 0 574 0 574 0 582 c 2,86,-1
 0 618 l 2,87,88
 0 626 0 626 5 631 c 128,-1,89
 10 636 10 636 18 636 c 2,90,-1
 190 636 l 1,91,-1
 229 729 l 2,92,93
 238 750 238 750 260 764 c 128,-1,94
 282 778 282 778 304 779 c 2,95,-1
 482 779 l 2,96,97
 504 779 504 779 526 764 c 128,-1,98
 548 749 548 749 556 729 c 2,99,-1
 595 636 l 1,100,-1
 768 636 l 2,101,102
 776 636 776 636 781 631 c 128,-1,103
 786 626 786 626 786 618 c 2,68,-1
EndSplineSet
EndChar

StartChar: book
Encoding: 59407 59407 16
Width: 928
Flags: W
LayerCount: 2
Fore
SplineSet
915 583 m 0,0,1
 937 551 937 551 925 511 c 2,2,-1
 771 6 l 2,3,4
 761 -30 761 -30 729 -54 c 128,-1,5
 697 -78 697 -78 660 -79 c 2,6,-1
 145 -79 l 2,7,8
 102 -79 102 -79 62 -49 c 128,-1,9
 22 -19 22 -19 7 25 c 0,10,11
 -7 62 -7 62 6 96 c 1,12,-1
 7 111 l 2,13,14
 8 124 8 124 10 131 c 0,15,16
 10 136 10 136 8 143 c 128,-1,17
 6 150 6 150 6 154 c 0,18,19
 7 160 7 160 11 166 c 2,20,-1
 29 192 l 2,21,22
 42 213 42 213 54 243 c 128,-1,23
 66 273 66 273 71 294 c 0,24,25
 73 300 73 300 71 311 c 128,-1,26
 69 322 69 322 71 327.5 c 128,-1,27
 73 333 73 333 80 342 c 2,28,-1
 90 355 l 2,29,30
 102 375 102 375 113 406 c 128,-1,31
 124 437 124 437 127 457 c 0,32,33
 128 462 128 462 126 474 c 128,-1,34
 124 486 124 486 126 490 c 0,35,36
 128 497 128 497 138 507 c 2,37,-1
 151 520 l 2,38,39
 161 534 161 534 174 567 c 128,-1,40
 187 600 187 600 190 621 c 0,41,42
 190 625 190 625 188 635 c 128,-1,43
 186 645 186 645 187 649.5 c 128,-1,44
 188 654 188 654 192 660 c 128,-1,45
 196 666 196 666 202 673 c 2,46,-1
 212 684 l 1,47,-1
 221 701 l 2,48,49
 226 711 226 711 229 721 c 128,-1,50
 232 731 232 731 238 741 c 2,51,-1
 249 759 l 2,52,53
 254 767 254 767 264 772 c 128,-1,54
 274 777 274 777 284 778 c 128,-1,55
 294 779 294 779 310 775 c 1,56,-1
 310 774 l 1,57,58
 331 779 331 779 338 779 c 2,59,-1
 763 779 l 2,60,61
 804 779 804 779 826 747 c 128,-1,62
 848 715 848 715 836 675 c 2,63,-1
 684 169 l 2,64,65
 664 103 664 103 644 84 c 128,-1,66
 624 65 624 65 572 64 c 2,67,-1
 87 64 l 2,68,69
 72 64 72 64 66 55.5 c 128,-1,70
 60 47 60 47 65 32 c 0,71,72
 79 -7 79 -7 146 -7 c 2,73,-1
 661 -7 l 2,74,75
 677 -7 677 -7 692 2 c 128,-1,76
 707 11 707 11 711 25 c 2,77,-1
 879 575 l 2,78,79
 883 588 883 588 882 607 c 1,80,81
 903 599 903 599 915 583 c 0,0,1
321 582 m 2,82,83
 319 575 319 575 322 570 c 128,-1,84
 325 565 325 565 333 564 c 2,85,-1
 672 564 l 2,86,87
 680 564 680 564 687 570 c 128,-1,88
 694 576 694 576 696 582 c 2,89,-1
 708 618 l 2,90,91
 710 625 710 625 706 630 c 128,-1,92
 702 635 702 635 695 636 c 2,93,-1
 356 636 l 2,94,95
 349 636 349 636 342 630 c 128,-1,96
 335 624 335 624 333 618 c 2,97,-1
 321 582 l 2,82,83
275 439 m 2,98,99
 272 432 272 432 276 427 c 128,-1,100
 280 422 280 422 287 421 c 2,101,-1
 626 421 l 2,102,103
 633 421 633 421 640 427 c 128,-1,104
 647 433 647 433 650 439 c 2,105,-1
 661 475 l 2,106,107
 664 482 664 482 660 488 c 128,-1,108
 656 494 656 494 649 493 c 2,109,-1
 310 493 l 2,110,111
 302 493 302 493 296 488 c 128,-1,112
 290 483 290 483 286 475 c 2,113,-1
 275 439 l 2,98,99
EndSplineSet
EndChar

StartChar: gear
Encoding: 59408 59408 17
Width: 1071
Flags: W
LayerCount: 2
Fore
SplineSet
500 350 m 256,0,1
 500 409 500 409 458 451 c 128,-1,2
 416 493 416 493 357 493 c 128,-1,3
 298 493 298 493 256 451 c 128,-1,4
 214 409 214 409 214 350 c 128,-1,5
 214 291 214 291 256 249 c 128,-1,6
 298 207 298 207 357 207 c 128,-1,7
 416 207 416 207 458 249 c 128,-1,8
 500 291 500 291 500 350 c 256,0,1
929 64 m 0,9,10
 929 93 929 93 907 115 c 128,-1,11
 885 137 885 137 857 136 c 128,-1,12
 829 135 829 135 807 115 c 128,-1,13
 785 95 785 95 786 64 c 0,14,15
 786 35 786 35 807 14 c 128,-1,16
 828 -7 828 -7 857 -7 c 128,-1,17
 886 -7 886 -7 908 14 c 128,-1,18
 930 35 930 35 929 64 c 0,9,10
929 636 m 0,19,20
 929 665 929 665 907 686 c 128,-1,21
 885 707 885 707 857 707 c 128,-1,22
 829 707 829 707 807 686 c 128,-1,23
 785 665 785 665 785.5 635.5 c 128,-1,24
 786 606 786 606 807 585 c 128,-1,25
 828 564 828 564 857 564 c 128,-1,26
 886 564 886 564 908 585 c 128,-1,27
 930 606 930 606 929 636 c 0,19,20
714 401 m 2,28,-1
 714 298 l 2,29,30
 714 292 714 292 710 287 c 128,-1,31
 706 282 706 282 701 281 c 2,32,-1
 615 267 l 1,33,34
 609 248 609 248 597 225 c 1,35,36
 616 198 616 198 647 161 c 0,37,38
 651 155 651 155 651 149 c 128,-1,39
 651 143 651 143 647 139 c 0,40,41
 634 122 634 122 601 89 c 128,-1,42
 568 56 568 56 557 56 c 0,43,44
 551 56 551 56 546 60 c 2,45,-1
 482 110 l 1,46,47
 461 99 461 99 439 93 c 1,48,49
 433 33 433 33 426 6 c 0,50,51
 422 -7 422 -7 409 -7 c 2,52,-1
 305 -7 l 2,53,54
 299 -7 299 -7 294 -3 c 128,-1,55
 289 1 289 1 289 7 c 2,56,-1
 276 92 l 1,57,58
 257 98 257 98 234 110 c 1,59,-1
 168 60 l 2,60,61
 164 56 164 56 157.5 56 c 128,-1,62
 151 56 151 56 145 60 c 0,63,64
 65 135 65 135 65 150 c 0,65,66
 65 155 65 155 69 160 c 0,67,68
 74 168 74 168 92 190 c 128,-1,69
 110 212 110 212 118 224 c 1,70,71
 105 248 105 248 98 270 c 1,72,-1
 13 283 l 2,73,74
 8 284 8 284 4 288 c 128,-1,75
 0 292 0 292 0 299 c 2,76,-1
 0 402 l 2,77,78
 0 408 0 408 4 413 c 128,-1,79
 8 418 8 418 13 419 c 2,80,-1
 99 433 l 1,81,82
 106 452 106 452 117 475 c 1,83,84
 98 502 98 502 67 539 c 0,85,86
 63 545 63 545 63 551 c 128,-1,87
 63 557 63 557 67 561 c 0,88,89
 79 578 79 578 113 611 c 128,-1,90
 147 644 147 644 157 644 c 0,91,92
 163 644 163 644 169 640 c 2,93,-1
 233 590 l 1,94,95
 252 600 252 600 276 608 c 1,96,97
 282 668 282 668 289 694 c 0,98,99
 292 707 292 707 305 707 c 2,100,-1
 409 707 l 2,101,102
 415 707 415 707 420 703 c 128,-1,103
 425 699 425 699 426 693 c 2,104,-1
 439 608 l 1,105,106
 458 602 458 602 480 591 c 1,107,-1
 546 640 l 2,108,109
 551 644 551 644 557.5 644 c 128,-1,110
 564 644 564 644 569 640 c 0,111,112
 650 565 650 565 650 550 c 0,113,114
 650 545 650 545 646 540 c 2,115,-1
 622 510 l 2,116,117
 605 489 605 489 597 476 c 1,118,119
 610 449 610 449 616 430 c 1,120,-1
 701 418 l 2,121,122
 706 416 706 416 710 412 c 128,-1,123
 714 408 714 408 714 401 c 2,28,-1
1071 103 m 2,124,-1
 1071 25 l 2,125,126
 1071 16 1071 16 988 8 c 1,127,128
 982 -7 982 -7 972 -21 c 1,129,130
 1000 -84 1000 -84 1000 -98 c 0,131,132
 1000 -100 1000 -100 998 -102 c 0,133,134
 930 -142 930 -142 929 -142 c 0,135,136
 924 -142 924 -142 903 -115 c 2,137,-1
 874 -78 l 1,138,139
 863 -79 863 -79 857 -79 c 128,-1,140
 851 -79 851 -79 840 -78 c 1,141,142
 833 -89 833 -89 811 -115 c 128,-1,143
 789 -141 789 -141 786 -142 c 0,144,145
 785 -142 785 -142 717 -102 c 0,146,147
 714 -100 714 -100 714 -98 c 0,148,149
 714 -84 714 -84 743 -21 c 1,150,151
 733 -7 733 -7 726 8 c 1,152,153
 643 16 643 16 643 25 c 2,154,-1
 643 103 l 2,155,156
 643 112 643 112 726 121 c 1,157,158
 733 137 733 137 743 150 c 1,159,160
 714 213 714 213 714 227 c 0,161,162
 714 229 714 229 717 231 c 2,163,-1
 769 261 l 2,164,165
 785 270 785 270 786 270 c 0,166,167
 790 270 790 270 811 244 c 128,-1,168
 832 218 832 218 840 206 c 1,169,-1
 857 207 l 1,170,-1
 874 206 l 1,171,172
 902 246 902 246 925 269 c 1,173,-1
 929 270 l 2,174,175
 931 270 931 270 998 231 c 0,176,177
 1000 229 1000 229 1000 227 c 0,178,179
 1000 213 1000 213 972 150 c 1,180,181
 981 137 981 137 988 121 c 1,182,183
 1071 112 1071 112 1071 103 c 2,124,-1
1071 675 m 2,184,-1
 1071 597 l 2,185,186
 1071 588 1071 588 988 579 c 1,187,188
 982 564 982 564 972 550 c 1,189,190
 1000 487 1000 487 1000 473 c 0,191,192
 1000 471 1000 471 998 469 c 0,193,194
 930 430 930 430 929 430 c 0,195,196
 924 430 924 430 903 456 c 128,-1,197
 882 482 882 482 874 494 c 1,198,199
 863 493 863 493 857 493 c 128,-1,200
 851 493 851 493 840 494 c 1,201,202
 833 482 833 482 811 456 c 128,-1,203
 789 430 789 430 787 430 c 128,-1,204
 785 430 785 430 717 469 c 0,205,206
 714 471 714 471 714 473 c 0,207,208
 714 487 714 487 743 550 c 1,209,210
 733 564 733 564 726 579 c 1,211,212
 643 588 643 588 643 597 c 2,213,-1
 643 675 l 2,214,215
 643 684 643 684 726 692 c 1,216,217
 733 708 733 708 743 721 c 1,218,219
 714 784 714 784 714 798 c 0,220,221
 714 800 714 800 717 802 c 2,222,-1
 769 832 l 2,223,224
 785 841 785 841 786 841 c 0,225,226
 790 841 790 841 811 815 c 128,-1,227
 832 789 832 789 840 777 c 1,228,229
 852 779 852 779 857 779 c 128,-1,230
 862 779 862 779 874 777 c 1,231,232
 902 817 902 817 925 840 c 1,233,-1
 929 841 l 2,234,235
 931 841 931 841 998 802 c 0,236,237
 1000 800 1000 800 1000 798 c 0,238,239
 1000 784 1000 784 972 721 c 1,240,241
 981 708 981 708 988 692 c 1,242,243
 1071 684 1071 684 1071 675 c 2,184,-1
EndSplineSet
EndChar

StartChar: safari
Encoding: 59409 59409 18
Width: 1000
Flags: W
LayerCount: 2
Fore
SplineSet
500 788 m 0,0,1
 464 788 464 788 431 782 c 1,2,-1
 430 785 l 1,3,4
 439 792 439 792 443.5 801.5 c 128,-1,5
 448 811 448 811 446 821 c 0,6,7
 444 834 444 834 431.5 842 c 128,-1,8
 419 850 419 850 401 850 c 0,9,10
 391 850 391 850 386 848 c 0,11,12
 364 844 364 844 351 829.5 c 128,-1,13
 338 815 338 815 341 799 c 0,14,15
 343 789 343 789 351 782 c 128,-1,16
 359 775 359 775 371 772 c 1,17,-1
 371 769 l 1,18,19
 273 741 273 741 196 675 c 128,-1,20
 119 609 119 609 76 518 c 0,21,22
 31 424 31 424 31 319 c 0,23,24
 31 192 31 192 95 82 c 0,25,26
 157 -24 157 -24 263 -86 c 0,27,28
 373 -150 373 -150 500 -150 c 128,-1,29
 627 -150 627 -150 737 -86 c 0,30,31
 843 -24 843 -24 905 82 c 0,32,33
 969 192 969 192 969 319 c 128,-1,34
 969 446 969 446 905 556 c 0,35,36
 843 662 843 662 737 724 c 0,37,38
 627 788 627 788 500 788 c 0,0,1
356 802 m 0,39,40
 355 812 355 812 364.5 821 c 128,-1,41
 374 830 374 830 389 833 c 0,42,43
 393 834 393 834 401 834 c 0,44,45
 413 834 413 834 421.5 829.5 c 128,-1,46
 430 825 430 825 431 818 c 0,47,48
 433 806 433 806 420 797 c 1,49,50
 409 805 409 805 395.5 802 c 128,-1,51
 382 799 382 799 375 787 c 1,52,53
 359 792 359 792 356 802 c 0,39,40
751 67 m 0,54,55
 685 3 685 3 600 -23 c 1,56,-1
 558 45 l 1,57,-1
 548 -34 l 1,58,59
 524 -37 524 -37 500 -37 c 0,60,61
 429 -37 429 -37 364 -10 c 128,-1,62
 299 17 299 17 249 67 c 0,63,64
 183 133 183 133 159 219 c 1,65,-1
 226 261 l 1,66,-1
 148 271 l 1,67,68
 145 295 145 295 145 319 c 0,69,70
 145 390 145 390 172 455 c 128,-1,71
 199 520 199 520 249 570 c 0,72,73
 315 636 315 636 400 660 c 1,74,-1
 442 593 l 1,75,-1
 452 671 l 1,76,77
 476 674 476 674 500 674 c 0,78,79
 571 674 571 674 636 647 c 128,-1,80
 701 620 701 620 751 570 c 0,81,82
 817 504 817 504 841 418 c 1,83,-1
 774 377 l 1,84,-1
 852 367 l 1,85,86
 856 335 856 335 856 319 c 0,87,88
 856 248 856 248 829 183 c 128,-1,89
 802 118 802 118 751 67 c 0,54,55
743 562 m 1,90,-1
 551 416 l 1,91,92
 528 427 528 427 504 428 c 1,93,-1
 455 533 l 1,94,-1
 452 417 l 1,95,96
 432 408 432 408 418 391 c 1,97,-1
 356 412 l 1,98,-1
 401 365 l 1,99,100
 391 343 391 343 391 323 c 1,101,-1
 286 273 l 1,102,-1
 402 270 l 1,103,-1
 403 268 l 1,104,-1
 257 76 l 1,105,-1
 449 222 l 1,106,107
 471 210 471 210 496 209 c 1,108,-1
 546 105 l 1,109,-1
 549 221 l 1,110,111
 567 229 567 229 583 247 c 1,112,-1
 644 225 l 1,113,-1
 599 273 l 1,114,115
 609 295 609 295 609 314 c 1,116,-1
 714 364 l 1,117,-1
 598 367 l 1,118,-1
 597 370 l 1,119,-1
 743 562 l 1,90,-1
500 416 m 1,120,-1
 500 413 l 1,121,-1
 500 416 l 1,120,-1
481 411 m 0,122,123
 493 413 493 413 500 413 c 2,124,-1
 512 412 l 1,125,-1
 512 412 l 1,126,127
 521 411 521 411 537 405 c 1,128,-1
 467 352 l 1,129,-1
 414 282 l 1,130,131
 412 286 412 286 410 294 c 2,132,-1
 408 299 l 1,133,134
 400 337 400 337 421.5 370 c 128,-1,135
 443 403 443 403 481 411 c 0,122,123
549 239 m 1,136,-1
 549 239 l 1,137,-1
 549 239 l 1,138,139
 536 230 536 230 521 227.5 c 128,-1,140
 506 225 506 225 499 225 c 128,-1,141
 492 225 492 225 488 226 c 1,142,-1
 488 226 l 1,143,-1
 488 226 l 1,144,145
 474 228 474 228 463 233 c 1,146,-1
 533 286 l 1,147,-1
 586 356 l 1,148,149
 588 352 588 352 590 344 c 2,150,-1
 592 338 l 2,151,152
 598 308 598 308 586 281 c 128,-1,153
 574 254 574 254 549 239 c 1,136,-1
EndSplineSet
EndChar

StartChar: opera
Encoding: 59410 59410 19
Width: 1000
Flags: W
LayerCount: 2
Fore
SplineSet
498 850 m 0,0,1
 362 850 362 850 255.5 788 c 128,-1,2
 149 726 149 726 90 615 c 0,3,4
 29 501 29 501 29 355 c 0,5,6
 29 222 29 222 89 106 c 128,-1,7
 149 -10 149 -10 253 -78 c 0,8,9
 363 -150 363 -150 499 -150 c 128,-1,10
 635 -150 635 -150 746 -78 c 0,11,12
 851 -10 851 -10 911 106 c 128,-1,13
 971 222 971 222 971 355 c 0,14,15
 971 502 971 502 909 616 c 0,16,17
 848 727 848 727 740.5 788.5 c 128,-1,18
 633 850 633 850 498 850 c 0,0,1
672 363 m 0,19,20
 672 253 672 253 664 186 c 0,21,22
 651 84 651 84 616 29 c 0,23,24
 574 -38 574 -38 498 -38 c 1,25,-1
 498 -38 l 1,26,27
 423 -38 423 -38 382 29 c 0,28,29
 348 84 348 84 337 186 c 0,30,31
 329 251 329 251 329 363 c 0,32,33
 329 478 329 478 339 547 c 0,34,35
 353 639 353 639 387 687 c 0,36,37
 427 742 427 742 498 742 c 0,38,39
 601 742 601 742 642 624 c 0,40,41
 672 537 672 537 672 363 c 0,19,20
EndSplineSet
EndChar

StartChar: layout
Encoding: 59411 59411 20
Width: 979
Flags: W
LayerCount: 2
Fore
SplineSet
0 88 m 1,0,1
 11 103 11 103 32 114 c 128,-1,2
 53 125 53 125 81 134 c 128,-1,3
 109 143 109 143 121 149 c 1,4,5
 140 149 140 149 155 145 c 128,-1,6
 170 141 170 141 188 130 c 128,-1,7
 206 119 206 119 213 117 c 0,8,9
 260 96 260 96 473 -2 c 1,10,11
 492 -6 492 -6 509 -2 c 128,-1,12
 526 2 526 2 548 16 c 128,-1,13
 570 30 570 30 572 30 c 2,14,-1
 649 65 l 2,15,16
 706 91 706 91 736 104 c 2,17,-1
 778 125 l 2,18,19
 816 144 816 144 838 149 c 0,20,21
 851 151 851 151 866 148 c 128,-1,22
 881 145 881 145 889 141 c 128,-1,23
 897 137 897 137 912 128 c 2,24,-1
 930 117 l 2,25,26
 933 115 933 115 946 111 c 128,-1,27
 959 107 959 107 964 103 c 128,-1,28
 969 99 969 99 975 92 c 0,29,30
 978 88 978 88 979 78 c 1,31,32
 969 65 969 65 948 54 c 128,-1,33
 927 43 927 43 897 32 c 128,-1,34
 867 21 867 21 857 16 c 0,35,36
 814 -4 814 -4 729 -46 c 128,-1,37
 644 -88 644 -88 600 -107 c 0,38,39
 593 -110 593 -110 579 -119 c 128,-1,40
 565 -128 565 -128 556 -132 c 2,41,-1
 530 -143 l 2,42,43
 513 -150 513 -150 503 -150 c 128,-1,44
 493 -150 493 -150 473 -148 c 1,45,-1
 209 -25 l 2,46,47
 203 -22 203 -22 177 -11 c 2,48,-1
 126 11 l 1,49,-1
 72 35 l 2,50,51
 43 48 43 48 26 59 c 128,-1,52
 9 70 9 70 4.5 74.5 c 128,-1,53
 0 79 0 79 0 88 c 1,0,1
0 356 m 1,54,55
 11 371 11 371 32 381 c 128,-1,56
 53 391 53 391 82 401 c 128,-1,57
 111 411 111 411 123 416 c 1,58,59
 142 416 142 416 157 412 c 128,-1,60
 172 408 172 408 192 397 c 2,61,-1
 217 383 l 1,62,-1
 344 325 l 2,63,64
 429 286 429 286 471 266 c 0,65,66
 490 261 490 261 508 266 c 128,-1,67
 526 271 526 271 547 283 c 2,68,-1
 572 297 l 1,69,70
 640 329 640 329 732 369 c 0,71,72
 743 374 743 374 764 386 c 128,-1,73
 785 398 785 398 802 405 c 128,-1,74
 819 412 819 412 838 416 c 0,75,76
 854 419 854 419 870 415 c 128,-1,77
 886 411 886 411 907 398 c 128,-1,78
 928 385 928 385 930 385 c 0,79,80
 935 382 935 382 946 379 c 128,-1,81
 957 376 957 376 964 371 c 128,-1,82
 971 366 971 366 974.5 360.5 c 128,-1,83
 978 355 978 355 979 346 c 1,84,85
 969 332 969 332 948 321 c 128,-1,86
 927 310 927 310 895 298 c 128,-1,87
 863 286 863 286 854 282 c 2,88,-1
 596 158 l 2,89,90
 589 155 589 155 570 144 c 128,-1,91
 551 133 551 133 541 129 c 128,-1,92
 531 125 531 125 509 119 c 128,-1,93
 487 113 487 113 473 119 c 0,94,95
 259 220 259 220 213 241 c 0,96,97
 207 244 207 244 169 260 c 128,-1,98
 131 276 131 276 100 290 c 128,-1,99
 69 304 69 304 38 320 c 128,-1,100
 7 336 7 336 4 342 c 0,101,102
 0 346 0 346 0 356 c 1,54,55
0 623 m 1,103,104
 10 638 10 638 32 650 c 128,-1,105
 54 662 54 662 84 672 c 128,-1,106
 114 682 114 682 125 688 c 2,107,-1
 473 850 l 1,108,109
 503 850 503 850 527 843 c 128,-1,110
 551 836 551 836 583 817 c 128,-1,111
 615 798 615 798 623 795 c 2,112,-1
 740 741 l 2,113,114
 818 705 818 705 857 686 c 0,115,116
 861 684 861 684 894 671 c 128,-1,117
 927 658 927 658 948 647 c 128,-1,118
 969 636 969 636 975 627 c 0,119,120
 978 623 978 623 979 614 c 1,121,122
 970 601 970 601 953 592 c 128,-1,123
 936 583 936 583 910 573 c 128,-1,124
 884 563 884 563 875 559 c 2,125,-1
 735 493 l 2,126,127
 642 449 642 449 596 426 c 2,128,-1
 576 415 l 2,129,130
 562 407 562 407 553 403 c 2,131,-1
 528 392 l 2,132,133
 512 385 512 385 501 386 c 128,-1,134
 490 387 490 387 473 387 c 1,135,-1
 217 506 l 1,136,-1
 154 534 l 2,137,138
 95 560 95 560 52 580 c 128,-1,139
 9 600 9 600 4 610 c 0,140,141
 0 614 0 614 0 623 c 1,103,104
EndSplineSet
EndChar

StartChar: calendar
Encoding: 59412 59412 21
Width: 928
Flags: W
LayerCount: 2
Fore
SplineSet
71 -79 m 1,0,-1
 232 -79 l 1,1,-1
 232 82 l 1,2,-1
 71 82 l 1,3,-1
 71 -79 l 1,0,-1
268 -79 m 1,4,-1
 446 -79 l 1,5,-1
 446 82 l 1,6,-1
 268 82 l 1,7,-1
 268 -79 l 1,4,-1
71 118 m 1,8,-1
 232 118 l 1,9,-1
 232 296 l 1,10,-1
 71 296 l 1,11,-1
 71 118 l 1,8,-1
268 118 m 1,12,-1
 446 118 l 1,13,-1
 446 296 l 1,14,-1
 268 296 l 1,15,-1
 268 118 l 1,12,-1
71 332 m 1,16,-1
 232 332 l 1,17,-1
 232 493 l 1,18,-1
 71 493 l 1,19,-1
 71 332 l 1,16,-1
482 -79 m 1,20,-1
 661 -79 l 1,21,-1
 661 82 l 1,22,-1
 482 82 l 1,23,-1
 482 -79 l 1,20,-1
268 332 m 1,24,-1
 446 332 l 1,25,-1
 446 493 l 1,26,-1
 268 493 l 1,27,-1
 268 332 l 1,24,-1
696 -79 m 1,28,-1
 857 -79 l 1,29,-1
 857 82 l 1,30,-1
 696 82 l 1,31,-1
 696 -79 l 1,28,-1
482 118 m 1,32,-1
 661 118 l 1,33,-1
 661 296 l 1,34,-1
 482 296 l 1,35,-1
 482 118 l 1,32,-1
286 600 m 2,36,-1
 286 761 l 2,37,38
 286 768 286 768 280 773 c 128,-1,39
 274 778 274 778 268 779 c 2,40,-1
 232 779 l 2,41,42
 225 779 225 779 220 773 c 128,-1,43
 215 767 215 767 214 761 c 2,44,-1
 214 600 l 2,45,46
 214 593 214 593 220 587 c 128,-1,47
 226 581 226 581 232 582 c 2,48,-1
 268 582 l 2,49,50
 275 582 275 582 280 587 c 128,-1,51
 285 592 285 592 286 600 c 2,36,-1
696 118 m 1,52,-1
 857 118 l 1,53,-1
 857 296 l 1,54,-1
 696 296 l 1,55,-1
 696 118 l 1,52,-1
482 332 m 1,56,-1
 661 332 l 1,57,-1
 661 493 l 1,58,-1
 482 493 l 1,59,-1
 482 332 l 1,56,-1
696 332 m 1,60,-1
 857 332 l 1,61,-1
 857 493 l 1,62,-1
 696 493 l 1,63,-1
 696 332 l 1,60,-1
714 600 m 2,64,-1
 714 761 l 2,65,66
 714 768 714 768 709 773 c 128,-1,67
 704 778 704 778 696 779 c 2,68,-1
 661 779 l 2,69,70
 653 779 653 779 648 773 c 128,-1,71
 643 767 643 767 643 761 c 2,72,-1
 643 600 l 2,73,74
 643 593 643 593 648 587 c 128,-1,75
 653 581 653 581 661 582 c 2,76,-1
 696 582 l 2,77,78
 704 582 704 582 709 587 c 128,-1,79
 714 592 714 592 714 600 c 2,64,-1
929 636 m 2,80,-1
 929 -79 l 2,81,82
 929 -108 929 -108 907 -129 c 128,-1,83
 885 -150 885 -150 857 -150 c 2,84,-1
 71 -150 l 2,85,86
 42 -150 42 -150 21 -129 c 128,-1,87
 0 -108 0 -108 0 -79 c 2,88,-1
 0 636 l 2,89,90
 0 665 0 665 21 686 c 128,-1,91
 42 707 42 707 71 707 c 2,92,-1
 143 707 l 1,93,-1
 143 761 l 2,94,95
 143 797 143 797 169 824 c 128,-1,96
 195 851 195 851 232 850 c 2,97,-1
 268 850 l 2,98,99
 305 850 305 850 331 824 c 128,-1,100
 357 798 357 798 357 761 c 2,101,-1
 357 707 l 1,102,-1
 571 707 l 1,103,-1
 571 761 l 2,104,105
 571 797 571 797 598 824 c 128,-1,106
 625 851 625 851 661 850 c 2,107,-1
 696 850 l 2,108,109
 733 850 733 850 759 824 c 128,-1,110
 785 798 785 798 786 761 c 2,111,-1
 786 707 l 1,112,-1
 857 707 l 2,113,114
 886 707 886 707 907 686 c 128,-1,115
 928 665 928 665 929 636 c 2,80,-1
EndSplineSet
EndChar

StartChar: googleplus
Encoding: 59413 59413 22
Width: 1184
Flags: W
LayerCount: 2
Fore
SplineSet
0 32 m 0,0,1
 0 119 0 119 89 187 c 128,-1,2
 178 255 178 255 304 255 c 2,3,-1
 358 255 l 1,4,5
 316 295 316 295 316 341 c 0,6,7
 316 370 316 370 332 399 c 1,8,9
 322 398 322 398 303 398 c 0,10,11
 199 398 199 398 133 463 c 128,-1,12
 67 528 67 528 67 623 c 0,13,14
 67 714 67 714 149 782 c 128,-1,15
 231 850 231 850 336 850 c 2,16,-1
 646 850 l 1,17,-1
 577 800 l 1,18,-1
 479 800 l 1,19,20
 526 782 526 782 553 732 c 128,-1,21
 580 682 580 682 579 621 c 0,22,23
 579 528 579 528 491 459 c 0,24,25
 454 430 454 430 443 413 c 128,-1,26
 432 396 432 396 432 371 c 0,27,28
 432 352 432 352 459 323 c 128,-1,29
 486 294 486 294 513 274 c 0,30,31
 574 231 574 231 598 186 c 128,-1,32
 622 141 622 141 621 73 c 0,33,34
 621 -17 621 -17 539 -84 c 128,-1,35
 457 -151 457 -151 317 -150 c 0,36,37
 184 -150 184 -150 92 -100 c 128,-1,38
 0 -50 0 -50 0 32 c 0,0,1
112 65 m 0,39,40
 112 -4 112 -4 171 -53 c 128,-1,41
 230 -102 230 -102 316 -101 c 0,42,43
 435 -101 435 -101 489 -57 c 128,-1,44
 543 -13 543 -13 542 60 c 0,45,46
 542 79 542 79 538 92 c 0,47,48
 535 103 535 103 531 113 c 128,-1,49
 527 123 527 123 519 132 c 2,50,-1
 505 148 l 2,51,52
 499 155 499 155 486 164 c 2,53,-1
 440 197 l 2,54,55
 423 209 423 209 414 214 c 0,56,57
 375 226 375 226 337 226 c 0,58,59
 247 227 247 227 180 179 c 128,-1,60
 113 131 113 131 112 65 c 0,39,40
178 624 m 0,61,62
 189 545 189 545 239 488 c 128,-1,63
 289 431 289 431 348 429.5 c 128,-1,64
 407 428 407 428 442 482 c 128,-1,65
 477 536 477 536 467 615 c 128,-1,66
 457 694 457 694 408 749 c 128,-1,67
 359 804 359 804 298 806 c 128,-1,68
 237 808 237 808 203 755 c 128,-1,69
 169 702 169 702 178 624 c 0,61,62
733 600 m 1,70,-1
 733 650 l 1,71,-1
 933 650 l 1,72,-1
 933 850 l 1,73,-1
 983 850 l 1,74,-1
 983 650 l 1,75,-1
 1184 650 l 1,76,-1
 1184 600 l 1,77,-1
 983 600 l 1,78,-1
 983 399 l 1,79,-1
 933 399 l 1,80,-1
 933 600 l 1,81,-1
 733 600 l 1,70,-1
EndSplineSet
EndChar

StartChar: firefox
Encoding: 59414 59414 23
Width: 1000
Flags: W
LayerCount: 2
Fore
SplineSet
999 524 m 1,0,-1
 987 449 l 1,1,-1
 982 487 l 2,2,3
 975 531 975 531 968 566 c 0,4,5
 959 615 959 615 950 638 c 0,6,7
 939 665 939 665 930 684 c 0,8,9
 922 699 922 699 916 707 c 0,10,11
 911 713 911 713 908 715 c 128,-1,12
 905 717 905 717 905 716 c 0,13,14
 914 693 914 693 919 672 c 0,15,16
 922 657 922 657 922 644 c 2,17,-1
 922 635 l 1,18,-1
 915 651 l 2,19,20
 905 671 905 671 891 690 c 0,21,22
 873 715 873 715 850 734 c 0,23,24
 821 757 821 757 788 768 c 0,25,26
 721 790 721 790 665 793 c 0,27,28
 636 795 636 795 615 792 c 2,29,-1
 611 792 l 1,30,-1
 614 791 l 1,31,32
 614 791 614 791 614 791 c 1,33,-1
 646 785 l 2,34,35
 682 777 682 777 708 768 c 0,36,37
 745 755 745 755 754 742 c 1,38,-1
 739 741 l 2,39,40
 721 740 721 740 702 738 c 0,41,42
 676 734 676 734 653 727 c 1,43,44
 653 727 653 727 656 726 c 0,45,46
 714 714 714 714 762 684 c 0,47,48
 854 625 854 625 877 516 c 1,49,-1
 871 527 l 2,50,51
 863 541 863 541 854 550 c 0,52,53
 842 563 842 563 831 567 c 1,54,55
 843 530 843 530 841 468 c 0,56,57
 840 409 840 409 827 371 c 0,58,59
 826 369 826 369 825 374 c 0,60,61
 814 402 814 402 792 412 c 1,62,63
 797 374 797 374 794 331 c 0,64,65
 791 284 791 284 779 249 c 0,66,67
 765 210 765 210 741 195 c 0,68,69
 740 194 740 194 746 215 c 0,70,71
 754 250 754 250 756 262 c 0,72,73
 760 284 760 284 748 263 c 0,74,75
 700 188 700 188 641 158 c 0,76,77
 592 133 592 133 535 140 c 0,78,79
 491 145 491 145 442 170 c 0,80,81
 414 185 414 185 371 214 c 1,82,-1
 370 215 l 1,83,84
 400 209 400 209 443 216 c 0,85,86
 489 223 489 223 512 240 c 1,87,88
 512 240 512 240 512 240 c 1,89,-1
 527 250 l 2,90,91
 551 267 551 267 560 272 c 0,92,93
 575 279 575 279 585 277 c 128,-1,94
 595 275 595 275 601.5 279.5 c 128,-1,95
 608 284 608 284 608.5 292 c 128,-1,96
 609 300 609 300 602 308 c 0,97,98
 588 324 588 324 566 332 c 0,99,100
 537 343 537 343 506 334 c 0,101,102
 498 332 498 332 481 325 c 0,103,104
 451 312 451 312 432 310 c 0,105,106
 401 307 401 307 369 326 c 128,-1,107
 337 345 337 345 325 365 c 0,108,109
 316 378 316 378 316 395 c 0,110,111
 318 405 318 405 320 411 c 0,112,113
 323 420 323 420 332 426 c 0,114,115
 337 429 337 429 347 433 c 2,116,-1
 352 435 l 1,117,118
 372 431 372 431 396 420 c 1,119,-1
 396 438 l 2,120,121
 397 442 397 442 394.5 459 c 128,-1,122
 392 476 392 476 388 489 c 1,123,124
 388 489 388 489 388 489 c 129,-1,125
 388 489 388 489 388 489 c 1,126,-1
 388 490 l 1,127,128
 388 490 388 490 388 490 c 129,-1,129
 388 490 388 490 388 490 c 1,130,131
 389 495 389 495 409 510 c 2,132,-1
 413 513 l 1,133,-1
 450 537 l 1,134,-1
 458 542 l 2,135,136
 468 548 468 548 469 549 c 2,137,-1
 471 550 l 2,138,139
 472 550 472 550 472 550.5 c 128,-1,140
 472 551 472 551 472 551 c 1,141,142
 485 561 485 561 487 580 c 1,143,144
 487 580 487 580 487 580 c 1,145,-1
 487 585 l 1,146,147
 487 585 487 585 487 585 c 1,148,-1
 487 593 l 1,149,150
 487 593 487 593 487 593 c 1,151,-1
 487 594 l 1,152,153
 487 594 487 594 487 594 c 129,-1,154
 487 594 487 594 487 594 c 129,-1,155
 487 594 487 594 487 594 c 129,-1,156
 487 594 487 594 487 594 c 1,157,158
 485 597 485 597 478 598.5 c 128,-1,159
 471 600 471 600 452 600 c 1,160,161
 452 600 452 600 452 600 c 1,162,-1
 452 600 l 1,163,164
 441 601 441 601 408 601 c 0,165,166
 387 600 387 600 370 618 c 0,167,168
 359 629 359 629 352 645 c 1,169,170
 364 708 364 708 420 740 c 0,171,172
 421 740 421 740 421 740.5 c 128,-1,173
 421 741 421 741 420 741 c 1,174,175
 422 742 422 742 412.5 742 c 128,-1,176
 403 742 403 742 389 739 c 0,177,178
 372 736 372 736 355 730 c 0,179,180
 335 723 335 723 319 713 c 0,181,182
 300 701 300 701 288 685 c 1,183,184
 235 699 235 699 186 687 c 1,185,-1
 179 688 l 2,186,187
 170 689 170 689 165 690 c 0,188,189
 117 733 117 733 116 779 c 1,190,191
 116 779 116 779 116 779 c 1,192,-1
 116 780 l 1,193,-1
 107 771 l 2,194,195
 96 758 96 758 87 742 c 0,196,197
 75 718 75 718 69 689 c 0,198,199
 62 653 62 653 65 610 c 2,200,-1
 65 604 l 1,201,202
 55 590 55 590 47 576 c 0,203,204
 41 565 41 565 40 560 c 0,205,206
 16 510 16 510 0 422 c 1,207,-1
 6 439 l 2,208,209
 14 459 14 459 25 477 c 1,210,211
 1 404 1 404 9 296 c 1,212,-1
 10 309 l 2,213,214
 12 326 12 326 15 343 c 1,215,216
 22 247 22 247 83 145 c 0,217,218
 147 35 147 35 244 -26 c 0,219,220
 337 -84 337 -84 451 -93 c 0,221,222
 490 -96 490 -96 530 -93 c 2,223,-1
 537 -92 l 2,224,225
 579 -89 579 -89 629 -78 c 0,226,227
 704 -60 704 -60 764 -23 c 0,228,229
 819 10 819 10 862 58 c 0,230,231
 900 102 900 102 928 156 c 0,232,233
 953 204 953 204 970 261 c 0,234,235
 984 308 984 308 991 360 c 0,236,237
 998 401 998 401 1000 444 c 0,238,239
 1001 474 1001 474 1000 502 c 2,240,-1
 999 524 l 1,0,-1
EndSplineSet
EndChar

StartChar: pencil
Encoding: 59415 59415 24
Width: 989
Flags: W
LayerCount: 2
Fore
SplineSet
0 -143 m 1,0,-1
 68 200 l 1,1,-1
 342 -73 l 1,2,-1
 0 -143 l 1,0,-1
137 249 m 1,3,-1
 559 671 l 1,4,-1
 818 411 l 1,5,-1
 397 -11 l 1,6,-1
 137 249 l 1,3,-1
668 743 m 256,7,8
 670 782 670 782 699 812 c 128,-1,9
 728 842 728 842 768 843 c 128,-1,10
 808 844 808 844 834 818 c 2,11,-1
 965 687 l 2,12,13
 990 661 990 661 989 621 c 128,-1,14
 988 581 988 581 959 552 c 128,-1,15
 930 523 930 523 890 522 c 128,-1,16
 850 521 850 521 824 546 c 2,17,-1
 693 677 l 2,18,19
 666 704 666 704 668 743 c 256,7,8
EndSplineSet
EndChar

StartChar: doc-text
Encoding: 59416 59416 25
Width: 857
Flags: W
LayerCount: 2
Fore
SplineSet
819 584 m 2,0,1
 827 577 827 577 835 564 c 1,2,-1
 571 564 l 1,3,-1
 571 828 l 1,4,5
 584 820 584 820 592 812 c 2,6,-1
 819 584 l 2,0,1
554 493 m 2,7,-1
 857 493 l 1,8,-1
 857 -96 l 2,9,10
 857 -119 857 -119 842 -134 c 128,-1,11
 827 -149 827 -149 804 -150 c 2,12,-1
 54 -150 l 2,13,14
 31 -150 31 -150 16 -134 c 128,-1,15
 1 -118 1 -118 0 -96 c 2,16,-1
 0 796 l 2,17,18
 0 819 0 819 16 834 c 128,-1,19
 32 849 32 849 54 850 c 2,20,-1
 500 850 l 1,21,-1
 500 546 l 2,22,23
 500 524 500 524 516 508 c 128,-1,24
 532 492 532 492 554 493 c 2,7,-1
643 82 m 2,25,-1
 643 118 l 2,26,27
 643 126 643 126 638 131 c 128,-1,28
 633 136 633 136 625 136 c 2,29,-1
 232 136 l 2,30,31
 224 136 224 136 219 131 c 128,-1,32
 214 126 214 126 214 118 c 2,33,-1
 214 82 l 2,34,35
 214 74 214 74 219 69 c 128,-1,36
 224 64 224 64 232 64 c 2,37,-1
 625 64 l 2,38,39
 633 64 633 64 638 69 c 128,-1,40
 643 74 643 74 643 82 c 2,25,-1
643 225 m 2,41,-1
 643 261 l 2,42,43
 643 268 643 268 638 273 c 128,-1,44
 633 278 633 278 625 278 c 2,45,-1
 232 278 l 2,46,47
 224 278 224 278 219 273 c 128,-1,48
 214 268 214 268 214 261 c 2,49,-1
 214 225 l 2,50,51
 214 217 214 217 219 212 c 128,-1,52
 224 207 224 207 232 207 c 2,53,-1
 625 207 l 2,54,55
 633 207 633 207 638 212 c 128,-1,56
 643 217 643 217 643 225 c 2,41,-1
643 368 m 2,57,-1
 643 403 l 2,58,59
 643 411 643 411 638 416 c 128,-1,60
 633 421 633 421 625 421 c 2,61,-1
 232 421 l 2,62,63
 224 421 224 421 219 416 c 128,-1,64
 214 411 214 411 214 403 c 2,65,-1
 214 368 l 2,66,67
 214 360 214 360 219 355 c 128,-1,68
 224 350 224 350 232 350 c 2,69,-1
 625 350 l 2,70,71
 633 350 633 350 638 355 c 128,-1,72
 643 360 643 360 643 368 c 2,57,-1
EndSplineSet
EndChar

StartChar: user
Encoding: 59417 59417 26
Width: 1024
Flags: W
LayerCount: 2
Fore
SplineSet
0 -119 m 1,0,1
 0 -110 0 -110 1 -96 c 128,-1,2
 2 -82 2 -82 12 -49 c 128,-1,3
 22 -16 22 -16 39 0.5 c 128,-1,4
 56 17 56 17 107 38 c 128,-1,5
 158 59 158 59 222 81 c 128,-1,6
 286 103 286 103 315 119 c 0,7,8
 353 138 353 138 374 175 c 128,-1,9
 395 212 395 212 394 251 c 0,10,11
 394 278 394 278 362 314 c 0,12,13
 329 352 329 352 309 416 c 128,-1,14
 289 480 289 480 289 565 c 0,15,16
 289 629 289 629 307 678 c 128,-1,17
 325 727 325 727 356 758 c 128,-1,18
 387 789 387 789 427 803 c 128,-1,19
 467 817 467 817 512 818 c 128,-1,20
 557 819 557 819 597 803 c 128,-1,21
 637 787 637 787 668 758 c 128,-1,22
 699 729 699 729 717 678 c 128,-1,23
 735 627 735 627 735 565 c 0,24,25
 735 481 735 481 715 416 c 128,-1,26
 695 351 695 351 662.5 314 c 128,-1,27
 630 277 630 277 630 251 c 0,28,29
 630 212 630 212 651 175 c 128,-1,30
 672 138 672 138 710 119 c 0,31,32
 739 104 739 104 803 81 c 128,-1,33
 867 58 867 58 917 38 c 128,-1,34
 967 18 967 18 984.5 0.5 c 128,-1,35
 1002 -17 1002 -17 1012 -47 c 128,-1,36
 1022 -77 1022 -77 1023 -98 c 2,37,-1
 1024 -119 l 1,38,-1
 0 -119 l 1,0,1
EndSplineSet
EndChar

StartChar: users
Encoding: 59418 59418 27
Width: 1201
Flags: W
LayerCount: 2
Fore
SplineSet
0 49 m 1,0,1
 20 56 20 56 60 71 c 2,2,-1
 129 97 l 2,3,4
 158 108 158 108 179 119 c 0,5,6
 216 138 216 138 236 175 c 128,-1,7
 256 212 256 212 257 251 c 0,8,9
 257 278 257 278 226 315 c 0,10,11
 207 336 207 336 193 375 c 1,12,13
 148 393 148 393 148 451 c 0,14,15
 148 494 148 494 162 512 c 1,16,17
 157 551 157 551 153 594 c 0,18,19
 148 649 148 649 179 702 c 128,-1,20
 210 755 210 755 263 786 c 128,-1,21
 316 817 316 817 373 818 c 0,22,23
 416 818 416 818 458 799 c 128,-1,24
 500 780 500 780 531 749 c 128,-1,25
 562 718 562 718 579 677 c 128,-1,26
 596 636 596 636 593 594 c 0,27,28
 589 539 589 539 585 512 c 1,29,30
 599 493 599 493 599 451 c 0,31,32
 599 393 599 393 554 375 c 1,33,34
 539 334 539 334 522 315 c 0,35,36
 490 278 490 278 490 251 c 0,37,38
 490 212 490 212 510 175 c 128,-1,39
 530 138 530 138 568 119 c 0,40,41
 597 104 597 104 660 81 c 128,-1,42
 723 58 723 58 773 38 c 128,-1,43
 823 18 823 18 839 0 c 0,44,45
 857 -17 857 -17 867 -47 c 128,-1,46
 877 -77 877 -77 877 -98 c 2,47,-1
 878 -119 l 1,48,-1
 0 -119 l 1,49,-1
 0 49 l 1,0,1
705 348 m 0,50,51
 705 382 705 382 717 398 c 1,52,53
 712 430 712 430 710 465 c 0,54,55
 706 510 706 510 731 554 c 128,-1,56
 756 598 756 598 800 626 c 128,-1,57
 844 654 844 654 890 653 c 128,-1,58
 936 652 936 652 979 626 c 128,-1,59
 1022 600 1022 600 1048 554 c 128,-1,60
 1074 508 1074 508 1070 465 c 0,61,62
 1068 430 1068 430 1062 398 c 1,63,64
 1074 382 1074 382 1074 348 c 0,65,66
 1074 300 1074 300 1038 286 c 1,67,68
 1026 253 1026 253 1011 236 c 0,69,70
 1002 226 1002 226 998 220 c 128,-1,71
 994 214 994 214 989 204 c 128,-1,72
 984 194 984 194 985 184 c 0,73,74
 985 152 985 152 1002 122 c 128,-1,75
 1019 92 1019 92 1049 76 c 0,76,77
 1066 67 1066 67 1091 57 c 128,-1,78
 1116 47 1116 47 1151 35 c 128,-1,79
 1186 23 1186 23 1201 16 c 1,80,-1
 1201 -119 l 1,81,-1
 947 -119 l 1,82,-1
 947 -108 l 2,83,84
 947 -101 947 -101 944 -82 c 128,-1,85
 941 -63 941 -63 937 -46 c 128,-1,86
 933 -29 933 -29 922 -8 c 128,-1,87
 911 13 911 13 899 25 c 0,88,89
 876 50 876 50 846 69 c 128,-1,90
 816 88 816 88 767 106 c 1,91,92
 794 140 794 140 794 184 c 0,93,94
 794 194 794 194 789 204 c 2,95,-1
 781 220 l 2,96,97
 778 226 778 226 769 236 c 0,98,99
 755 251 755 251 742 285 c 1,100,101
 705 301 705 301 705 348 c 0,50,51
EndSplineSet
EndChar

StartChar: ok
Encoding: 59419 59419 28
Width: 1000
Flags: W
LayerCount: 2
Fore
SplineSet
932 534 m 256,0,1
 932 512 932 512 917 496 c 2,2,-1
 437 16 l 2,3,4
 421 1 421 1 399 1 c 128,-1,5
 377 1 377 1 361 16 c 2,6,-1
 83 294 l 2,7,8
 68 310 68 310 68 332 c 128,-1,9
 68 354 68 354 83 370 c 2,10,-1
 159 446 l 2,11,12
 175 462 175 462 197 462 c 128,-1,13
 219 462 219 462 235 446 c 2,14,-1
 399 281 l 1,15,-1
 765 648 l 2,16,17
 781 664 781 664 803 664 c 128,-1,18
 825 664 825 664 841 648 c 2,19,-1
 917 572 l 2,20,21
 932 556 932 556 932 534 c 256,0,1
EndSplineSet
EndChar

StartChar: cancel
Encoding: 59420 59420 29
Width: 785
Flags: W
LayerCount: 2
Fore
SplineSet
724 112 m 0,0,1
 724 90 724 90 709 74 c 2,2,-1
 633 -2 l 2,3,4
 617 -17 617 -17 595 -17 c 128,-1,5
 573 -17 573 -17 557 -2 c 2,6,-1
 393 163 l 1,7,-1
 229 -2 l 2,8,9
 213 -17 213 -17 191 -17 c 128,-1,10
 169 -17 169 -17 153 -2 c 2,11,-1
 77 74 l 2,12,13
 61 90 61 90 61 112 c 128,-1,14
 61 134 61 134 77 150 c 2,15,-1
 241 314 l 1,16,-1
 77 478 l 2,17,18
 61 494 61 494 61 516 c 128,-1,19
 61 538 61 538 77 554 c 2,20,-1
 153 630 l 2,21,22
 169 646 169 646 191 646 c 128,-1,23
 213 646 213 646 229 630 c 2,24,-1
 393 466 l 1,25,-1
 557 630 l 2,26,27
 573 646 573 646 595 646 c 128,-1,28
 617 646 617 646 633 630 c 2,29,-1
 709 554 l 2,30,31
 724 539 724 539 724 516 c 128,-1,32
 724 493 724 493 709 478 c 2,33,-1
 545 314 l 1,34,-1
 709 150 l 2,35,36
 724 135 724 135 724 112 c 0,0,1
EndSplineSet
EndChar

StartChar: help
Encoding: 59421 59421 30
Width: 571
Flags: W
LayerCount: 2
Fore
SplineSet
393 149 m 2,0,-1
 393 15 l 2,1,2
 393 6 393 6 386 -1 c 128,-1,3
 379 -8 379 -8 371 -7 c 2,4,-1
 237 -7 l 2,5,6
 228 -7 228 -7 221 -1 c 128,-1,7
 214 5 214 5 214 15 c 2,8,-1
 214 149 l 2,9,10
 214 158 214 158 221 165 c 128,-1,11
 228 172 228 172 237 171 c 2,12,-1
 371 171 l 2,13,14
 379 171 379 171 386 165 c 128,-1,15
 393 159 393 159 393 149 c 2,0,-1
569 484 m 0,16,17
 569 454 569 454 561 428 c 128,-1,18
 553 402 553 402 541 385 c 128,-1,19
 529 368 529 368 510 352 c 128,-1,20
 491 336 491 336 478 327 c 128,-1,21
 465 318 465 318 444 308 c 0,22,23
 421 295 421 295 406 271 c 128,-1,24
 391 247 391 247 391 234 c 0,25,26
 391 224 391 224 384 216 c 128,-1,27
 377 208 377 208 368 207 c 2,28,-1
 234 207 l 2,29,30
 226 207 226 207 220 217 c 128,-1,31
 214 227 214 227 214 238 c 2,32,-1
 214 264 l 2,33,34
 214 310 214 310 251 351 c 128,-1,35
 288 392 288 392 330 411 c 0,36,37
 363 426 363 426 377 443 c 128,-1,38
 391 460 391 460 391 484 c 128,-1,39
 391 508 391 508 365 526 c 128,-1,40
 339 544 339 544 304 544 c 128,-1,41
 269 544 269 544 245 528 c 0,42,43
 225 514 225 514 185 464 c 0,44,45
 178 455 178 455 168 455 c 0,46,47
 161 455 161 455 154 459 c 2,48,-1
 63 529 l 2,49,50
 55 535 55 535 54 543 c 128,-1,51
 53 551 53 551 57 559 c 0,52,53
 146 707 146 707 316 707 c 0,54,55
 361 707 361 707 406 690 c 128,-1,56
 451 673 451 673 487 644 c 128,-1,57
 523 615 523 615 546 572 c 128,-1,58
 569 529 569 529 569 484 c 0,16,17
EndSplineSet
EndChar

StartChar: mobile
Encoding: 59422 59422 31
Width: 580
Flags: W
LayerCount: 2
Fore
SplineSet
480 840 m 2,0,1
 522 840 522 840 551 811 c 128,-1,2
 580 782 580 782 580 740 c 2,3,-1
 580 -40 l 2,4,5
 580 -80 580 -80 551 -110 c 128,-1,6
 522 -140 522 -140 480 -140 c 2,7,-1
 100 -140 l 2,8,9
 60 -140 60 -140 30 -110 c 128,-1,10
 0 -80 0 -80 0 -40 c 2,11,-1
 0 740 l 2,12,13
 0 782 0 782 30 811 c 128,-1,14
 60 840 60 840 100 840 c 2,15,-1
 480 840 l 2,0,1
290 -100 m 0,16,17
 320 -100 320 -100 340 -85 c 128,-1,18
 360 -70 360 -70 360 -49 c 128,-1,19
 360 -28 360 -28 340 -14 c 128,-1,20
 320 0 320 0 291 0 c 128,-1,21
 262 0 262 0 241 -15 c 128,-1,22
 220 -30 220 -30 220 -50 c 128,-1,23
 220 -70 220 -70 241 -85 c 128,-1,24
 262 -100 262 -100 290 -100 c 0,16,17
500 50 m 1,25,-1
 500 710 l 1,26,-1
 80 710 l 1,27,-1
 80 50 l 1,28,-1
 500 50 l 1,25,-1
EndSplineSet
EndChar

StartChar: twitter
Encoding: 59423 59423 32
Width: 920
Flags: W
LayerCount: 2
Fore
SplineSet
920 636 m 1,0,1
 884 582 884 582 826 538 c 1,2,-1
 826 514 l 2,3,4
 826 384 826 384 766 264 c 128,-1,5
 706 144 706 144 580 61 c 128,-1,6
 454 -22 454 -22 290 -22 c 0,7,8
 130 -22 130 -22 0 62 c 1,9,10
 14 60 14 60 46 60 c 0,11,12
 178 60 178 60 280 140 c 1,13,14
 218 142 218 142 170 178 c 128,-1,15
 122 214 122 214 104 272 c 1,16,17
 114 268 114 268 139 268 c 128,-1,18
 164 268 164 268 188 274 c 1,19,20
 122 288 122 288 80 340 c 128,-1,21
 38 392 38 392 38 460 c 2,22,-1
 38 462 l 1,23,24
 74 442 74 442 122 438 c 1,25,26
 38 496 38 496 38 596 c 0,27,28
 38 644 38 644 64 690 c 1,29,30
 218 502 218 502 454 494 c 1,31,32
 448 512 448 512 448 536 c 0,33,34
 448 614 448 614 503 669 c 128,-1,35
 558 724 558 724 639 724 c 128,-1,36
 720 724 720 724 774 666 c 1,37,38
 834 678 834 678 894 710 c 1,39,40
 874 644 874 644 812 606 c 1,41,42
 868 614 868 614 920 636 c 1,0,1
EndSplineSet
EndChar

StartChar: horizontal-split
Encoding: 59424 59424 33
Width: 1000
Flags: W
LayerCount: 2
Fore
SplineSet
125 58 m 1,0,-1
 875 58 l 1,1,-1
 875 308 l 1,2,-1
 125 308 l 1,3,-1
 125 58 l 1,0,-1
125 392 m 1,4,-1
 875 392 l 1,5,-1
 875 475 l 1,6,-1
 125 475 l 1,7,-1
 125 392 l 1,4,-1
125 642 m 1,8,-1
 125 558 l 1,9,-1
 875 558 l 1,10,-1
 875 642 l 1,11,-1
 125 642 l 1,8,-1
EndSplineSet
EndChar

StartChar: right-open
Encoding: 59425 59425 34
Width: 495
Flags: W
LayerCount: 2
Fore
SplineSet
0 0 m 0,0,1
 0 25 0 25 18 43 c 2,2,-1
 323 347 l 1,3,-1
 18 651 l 2,4,5
 0 669 0 669 0 695 c 128,-1,6
 0 721 0 721 18 738 c 128,-1,7
 36 755 36 755 62 756 c 128,-1,8
 88 757 88 757 105 738 c 2,9,-1
 495 347 l 1,10,-1
 105 -44 l 2,11,12
 86 -62 86 -62 62 -62 c 128,-1,13
 38 -62 38 -62 19 -44 c 128,-1,14
 0 -26 0 -26 0 0 c 0,0,1
EndSplineSet
EndChar

StartChar: left-open
Encoding: 59426 59426 35
Width: 495
Flags: W
LayerCount: 2
Fore
SplineSet
0 353 m 1,0,-1
 391 744 l 2,1,2
 409 762 409 762 433.5 762 c 128,-1,3
 458 762 458 762 476.5 744 c 128,-1,4
 495 726 495 726 495 700 c 128,-1,5
 495 674 495 674 477 657 c 2,6,-1
 173 353 l 1,7,-1
 477 48 l 2,8,9
 495 31 495 31 495 5 c 128,-1,10
 495 -21 495 -21 477 -38.5 c 128,-1,11
 459 -56 459 -56 434 -56 c 128,-1,12
 409 -56 409 -56 391 -38 c 2,13,-1
 0 353 l 1,0,-1
EndSplineSet
EndChar

StartChar: vertical-split
Encoding: 59427 59427 36
Width: 1000
Flags: W
LayerCount: 2
Fore
SplineSet
125 225 m 1,0,-1
 458 225 l 1,1,-1
 458 308 l 1,2,-1
 125 308 l 1,3,-1
 125 225 l 1,0,-1
125 58 m 1,4,-1
 458 58 l 1,5,-1
 458 142 l 1,6,-1
 125 142 l 1,7,-1
 125 58 l 1,4,-1
125 392 m 1,8,-1
 458 392 l 1,9,-1
 458 475 l 1,10,-1
 125 475 l 1,11,-1
 125 392 l 1,8,-1
125 642 m 1,12,-1
 125 558 l 1,13,-1
 458 558 l 1,14,-1
 458 642 l 1,15,-1
 125 642 l 1,12,-1
542 642 m 1,16,-1
 875 642 l 1,17,-1
 875 58 l 1,18,-1
 542 58 l 1,19,-1
 542 642 l 1,16,-1
EndSplineSet
EndChar

StartChar: facebook
Encoding: 59428 59428 37
Width: 571
Flags: W
LayerCount: 2
Fore
SplineSet
535 843 m 1,0,-1
 535 696 l 1,1,-1
 448 696 l 2,2,3
 400 696 400 696 383 676 c 128,-1,4
 366 656 366 656 366 616 c 2,5,-1
 366 510 l 1,6,-1
 530 510 l 1,7,-1
 508 345 l 1,8,-1
 366 345 l 1,9,-1
 366 -79 l 1,10,-1
 195 -79 l 1,11,-1
 195 345 l 1,12,-1
 53 345 l 1,13,-1
 53 510 l 1,14,-1
 195 510 l 1,15,-1
 195 632 l 2,16,17
 195 736 195 736 253 793 c 128,-1,18
 311 850 311 850 408 850 c 0,19,20
 490 850 490 850 535 843 c 1,0,-1
EndSplineSet
EndChar

StartChar: vk
Encoding: 59429 59429 38
Width: 1220
Flags: W
LayerCount: 2
Fore
SplineSet
0 654 m 1,0,1
 10 662 10 662 24.5 666 c 128,-1,2
 39 670 39 670 50 670 c 2,3,-1
 59 670 l 2,4,5
 69 670 69 670 83 669 c 0,6,7
 105 668 105 668 115 668 c 0,8,9
 121 668 121 668 153 670 c 0,10,11
 169 671 169 671 182 671 c 128,-1,12
 195 671 195 671 205 670 c 0,13,14
 225 668 225 668 237 662 c 0,15,16
 243 659 243 659 250 649 c 128,-1,17
 257 639 257 639 262 630 c 128,-1,18
 267 621 267 621 273 605 c 128,-1,19
 279 589 279 589 283 583 c 0,20,21
 321 501 321 501 377 420 c 2,22,-1
 384 409 l 2,23,24
 389 401 389 401 393 397 c 128,-1,25
 397 393 397 393 402 385 c 128,-1,26
 407 377 407 377 412 374 c 128,-1,27
 417 371 417 371 423 366 c 128,-1,28
 429 361 429 361 434 360 c 128,-1,29
 439 359 439 359 446 360 c 0,30,31
 474 365 474 365 477 477 c 0,32,33
 478 496 478 496 478 512 c 0,34,35
 478 586 478 586 463 614 c 0,36,37
 457 625 457 625 448 632 c 128,-1,38
 439 639 439 639 423 644 c 128,-1,39
 407 649 407 649 400 654 c 1,40,41
 414 682 414 682 450 691 c 128,-1,42
 486 700 486 700 546 700 c 2,43,-1
 625 700 l 2,44,45
 651 700 651 700 652 697 c 2,46,-1
 674 691 l 1,47,-1
 694 682 l 2,48,49
 714 673 714 673 706 668 c 1,50,51
 715 650 715 650 717 626 c 0,52,53
 717 619 717 619 718 612 c 0,54,55
 718 592 718 592 715 560 c 0,56,57
 711 518 711 518 711 508 c 0,58,59
 708 485 708 485 708 462 c 0,60,61
 708 444 708 444 710 424 c 0,62,63
 714 380 714 380 740 363 c 1,64,65
 749 364 749 364 757 367 c 128,-1,66
 765 370 765 370 772 378 c 2,67,-1
 783 390 l 2,68,69
 787 394 787 394 796 406 c 128,-1,70
 805 418 805 418 806 420 c 0,71,72
 853 482 853 482 900 583 c 1,73,-1
 909 606 l 1,74,-1
 921 632 l 2,75,76
 933 658 933 658 933 652 c 128,-1,77
 933 646 933 646 948 665 c 1,78,79
 964 672 964 672 986 672 c 2,80,-1
 995 672 l 2,81,82
 1015 672 1015 672 1041 670 c 0,83,84
 1073 668 1073 668 1088 668 c 0,85,86
 1097 668 1097 668 1116 669 c 2,87,-1
 1148 671 l 2,88,89
 1161 672 1161 672 1178 670 c 128,-1,90
 1195 668 1195 668 1203 664 c 128,-1,91
 1211 660 1211 660 1217 651 c 0,92,93
 1220 645 1220 645 1220 638 c 0,94,95
 1220 609 1220 609 1185 551 c 0,96,97
 1168 522 1168 522 1151 499 c 128,-1,98
 1134 476 1134 476 1105 441 c 128,-1,99
 1076 406 1076 406 1068 394 c 0,100,101
 1066 392 1066 392 1054 376 c 128,-1,102
 1042 360 1042 360 1037 352 c 128,-1,103
 1032 344 1032 344 1025 330 c 128,-1,104
 1018 316 1018 316 1020 303 c 0,105,106
 1020 295 1020 295 1023 288 c 128,-1,107
 1026 281 1026 281 1033 273 c 2,108,-1
 1043 261 l 2,109,110
 1046 257 1046 257 1056 248 c 2,111,-1
 1068 237 l 2,112,113
 1139 172 1139 172 1179.5 120 c 128,-1,114
 1220 68 1220 68 1220 45 c 0,115,116
 1220 12 1220 12 1169 4 c 0,117,118
 1143 0 1143 0 1116 0 c 0,119,120
 1095 0 1095 0 1073 3 c 0,121,122
 1053 5 1053 5 1036 5 c 0,123,124
 1010 5 1010 5 991 0 c 1,125,-1
 985 0 l 1,126,127
 919 11 919 11 846 94 c 0,128,129
 842 98 842 98 829 115 c 128,-1,130
 816 132 816 132 807 140 c 128,-1,131
 798 148 798 148 784 157 c 128,-1,132
 770 166 770 166 757 163 c 0,133,134
 734 159 734 159 727 134 c 128,-1,135
 720 109 720 109 718 75 c 128,-1,136
 716 41 716 41 708 26 c 0,137,138
 695 2 695 2 629 2 c 0,139,140
 601 2 601 2 563 6 c 0,141,142
 485 14 485 14 422 46 c 128,-1,143
 359 78 359 78 321 114 c 128,-1,144
 283 150 283 150 240 206 c 0,145,146
 136 339 136 339 43 528 c 2,147,-1
 20 576 l 2,148,149
 16 584 16 584 11 600 c 128,-1,150
 6 616 6 616 3 628 c 128,-1,151
 0 640 0 640 0 654 c 1,0,1
EndSplineSet
EndChar

StartChar: linkedin
Encoding: 59430 59430 39
Width: 857
Flags: W
LayerCount: 2
Fore
SplineSet
195 501 m 1,0,-1
 195 -52 l 1,1,-1
 11 -52 l 1,2,-1
 11 501 l 1,3,-1
 195 501 l 1,0,-1
207 672 m 0,4,5
 207 631 207 631 178 604 c 128,-1,6
 149 577 149 577 103 577 c 2,7,-1
 102 577 l 2,8,9
 56 577 56 577 28 604 c 128,-1,10
 0 631 0 631 0 672 c 128,-1,11
 0 713 0 713 29 740 c 128,-1,12
 58 767 58 767 104 767 c 128,-1,13
 150 767 150 767 178 740 c 128,-1,14
 206 713 206 713 207 672 c 0,4,5
857 265 m 2,15,-1
 857 -52 l 1,16,-1
 674 -52 l 1,17,-1
 674 244 l 2,18,19
 674 303 674 303 651 336 c 128,-1,20
 628 369 628 369 580 369 c 0,21,22
 545 369 545 369 522 350 c 128,-1,23
 499 331 499 331 486 302 c 0,24,25
 480 285 480 285 480 257 c 2,26,-1
 480 -52 l 1,27,-1
 296 -52 l 1,28,29
 297 171 297 171 297 309 c 2,30,-1
 297 474 l 1,31,-1
 296 501 l 1,32,-1
 480 501 l 1,33,-1
 480 421 l 1,34,-1
 479 421 l 1,35,36
 490 439 490 439 502 452 c 128,-1,37
 514 465 514 465 533 481 c 128,-1,38
 552 497 552 497 582 505 c 128,-1,39
 612 513 612 513 646 514 c 0,40,41
 741 514 741 514 799 451 c 128,-1,42
 857 388 857 388 857 265 c 2,15,-1
EndSplineSet
EndChar

StartChar: email
Encoding: 59431 59431 40
Width: 1037
Flags: W
LayerCount: 2
Fore
SplineSet
0 62 m 2,0,-1
 0 638 l 1,1,-1
 3 657 l 1,2,-1
 342 367 l 1,3,-1
 4 42 l 1,4,5
 0 56 0 56 0 62 c 2,0,-1
45 697 m 1,6,7
 52 700 52 700 62 700 c 2,8,-1
 975 700 l 2,9,10
 984 700 984 700 993 697 c 1,11,-1
 653 406 l 1,12,-1
 608 370 l 1,13,-1
 519 297 l 1,14,-1
 430 370 l 1,15,-1
 385 406 l 1,16,-1
 45 697 l 1,6,7
46 3 m 1,17,-1
 387 330 l 1,18,-1
 519 223 l 1,19,-1
 651 330 l 1,20,-1
 992 3 l 1,21,22
 984 0 984 0 975 0 c 2,23,-1
 62 0 l 2,24,25
 54 0 54 0 46 3 c 1,17,-1
696 367 m 1,26,-1
 1034 657 l 1,27,28
 1037 648 1037 648 1037 638 c 2,29,-1
 1037 62 l 2,30,31
 1037 53 1037 53 1034 42 c 1,32,-1
 696 367 l 1,26,-1
EndSplineSet
EndChar

StartChar: home
Encoding: 59433 59433 41
Width: 900
Flags: W
LayerCount: 2
Fore
SplineSet
888 336 m 2,0,1
 904 320 904 320 899 309 c 128,-1,2
 894 298 894 298 872 298 c 2,3,-1
 788 298 l 1,4,-1
 788 -12 l 2,5,6
 788 -26 788 -26 787 -33 c 128,-1,7
 786 -40 786 -40 779 -46 c 128,-1,8
 772 -52 772 -52 756 -52 c 2,9,-1
 552 -52 l 1,10,-1
 552 258 l 1,11,-1
 348 258 l 1,12,-1
 348 -52 l 1,13,-1
 154 -52 l 2,14,15
 126 -52 126 -52 119 -42 c 128,-1,16
 112 -32 112 -32 112 -12 c 2,17,-1
 112 298 l 1,18,-1
 28 298 l 2,19,20
 6 298 6 298 1 309 c 128,-1,21
 -4 320 -4 320 12 336 c 2,22,-1
 412 738 l 2,23,24
 428 754 428 754 450 754 c 128,-1,25
 472 754 472 754 488 738 c 2,26,-1
 888 336 l 2,0,1
EndSplineSet
EndChar

StartChar: css3
Encoding: 59434 59434 42
Width: 1000
Flags: W
LayerCount: 2
Fore
SplineSet
153 779 m 1,0,-1
 993 779 l 1,1,-1
 845 35 l 1,2,-1
 396 -114 l 1,3,-1
 7 35 l 1,4,-1
 46 233 l 1,5,-1
 212 233 l 1,6,-1
 196 151 l 1,7,-1
 431 62 l 1,8,-1
 703 151 l 1,9,-1
 741 341 l 1,10,-1
 66 341 l 1,11,-1
 99 506 l 1,12,-1
 773 506 l 1,13,-1
 795 613 l 1,14,-1
 121 613 l 1,15,-1
 153 779 l 1,0,-1
EndSplineSet
EndChar

StartChar: edge
Encoding: 59435 59435 43
Width: 1000
Flags: W
LayerCount: 2
Fore
SplineSet
422 551 m 1,0,1
 374 496 374 496 365 420 c 1,2,-1
 663 420 l 1,3,-1
 663 427 l 2,4,5
 664 437 664 437 663 442 c 0,6,7
 660 496 660 496 637 533 c 0,8,9
 604 584 604 584 536 595 c 0,10,11
 455 608 455 608 358 573 c 0,12,13
 231 527 231 527 148 423 c 0,14,15
 143 417 143 417 134 405 c 2,16,-1
 120 385 l 1,17,-1
 121 390 l 2,18,19
 122 398 122 398 122 402 c 0,20,21
 141 529 141 529 216 620 c 0,22,23
 307 730 307 730 451 753 c 0,24,25
 591 776 591 776 713 706 c 0,26,27
 822 643 822 643 870 519 c 0,28,29
 896 447 896 447 896 375 c 0,30,31
 897 343 897 343 897 281 c 2,32,-1
 897 270 l 1,33,-1
 368 270 l 1,34,35
 368 203 368 203 410 158 c 0,36,37
 456 110 456 110 535 98 c 0,38,39
 685 76 685 76 817 152 c 1,40,-1
 824 155 l 1,41,-1
 824 156 l 1,42,-1
 826 156 l 1,43,-1
 826 -14 l 2,44,45
 826 -22 826 -22 819 -26 c 0,46,47
 725 -72 725 -72 619 -80 c 0,48,49
 544 -87 544 -87 486 -75 c 0,50,51
 385 -54 385 -54 314 15 c 0,52,53
 241 86 241 86 223 186 c 0,54,55
 209 264 209 264 228 336 c 128,-1,56
 247 408 247 408 296 463.5 c 128,-1,57
 345 519 345 519 419 551 c 1,58,-1
 422 551 l 1,0,1
EndSplineSet
EndChar

StartChar: bookmark
Encoding: 59436 59436 44
Width: 714
Flags: W
LayerCount: 2
Fore
SplineSet
650 779 m 2,0,1
 662 779 662 779 674 774 c 0,2,3
 693 766 693 766 703 751 c 128,-1,4
 713 736 713 736 714 716 c 2,5,-1
 714 -3 l 2,6,7
 714 -22 714 -22 703 -38 c 128,-1,8
 692 -54 692 -54 674 -61 c 0,9,10
 664 -65 664 -65 650 -65 c 0,11,12
 623 -65 623 -65 603 -47 c 2,13,-1
 357 189 l 1,14,-1
 111 -47 l 2,15,16
 91 -66 91 -66 65 -66 c 0,17,18
 52 -66 52 -66 40 -61 c 0,19,20
 22 -54 22 -54 11 -38 c 128,-1,21
 0 -22 0 -22 0 -3 c 2,22,-1
 0 716 l 2,23,24
 0 735 0 735 11 751 c 128,-1,25
 22 767 22 767 40 774 c 0,26,27
 52 779 52 779 65 779 c 2,28,-1
 650 779 l 2,0,1
EndSplineSet
EndChar

StartChar: youtube
Encoding: 59437 59437 45
Width: 848
Flags: W
LayerCount: 2
Fore
SplineSet
638 349 m 1,0,-1
 260 539 l 1,1,-1
 260 159 l 1,2,-1
 638 349 l 1,0,-1
79 679 m 2,3,-1
 768 679 l 2,4,5
 810 679 810 679 829 660 c 128,-1,6
 848 641 848 641 848 600 c 2,7,-1
 848 99 l 2,8,9
 848 59 848 59 828.5 39.5 c 128,-1,10
 809 20 809 20 768 20 c 2,11,-1
 79 20 l 2,12,13
 41 20 41 20 20.5 40 c 128,-1,14
 0 60 0 60 0 99 c 2,15,-1
 0 600 l 2,16,17
 0 641 0 641 20.5 661.5 c 128,-1,18
 41 682 41 682 79 679 c 2,3,-1
EndSplineSet
EndChar

StartChar: desktop
Encoding: 59438 59438 46
Width: 1071
Flags: W
LayerCount: 2
Fore
SplineSet
1000 296 m 2,0,-1
 1000 761 l 2,1,2
 1000 768 1000 768 995 773 c 128,-1,3
 990 778 990 778 982 779 c 2,4,-1
 89 779 l 2,5,6
 82 779 82 779 77 773 c 128,-1,7
 72 767 72 767 71 761 c 2,8,-1
 71 296 l 2,9,10
 71 289 71 289 77 284 c 128,-1,11
 83 279 83 279 89 279 c 2,12,-1
 982 279 l 2,13,14
 989 279 989 279 995 284 c 128,-1,15
 1001 289 1001 289 1000 296 c 2,0,-1
1071 761 m 2,16,-1
 1071 154 l 2,17,18
 1071 117 1071 117 1045 91 c 128,-1,19
 1019 65 1019 65 982 64 c 2,20,-1
 679 64 l 1,21,22
 679 44 679 44 688 21 c 128,-1,23
 697 -2 697 -2 705 -19 c 128,-1,24
 713 -36 713 -36 714 -43 c 0,25,26
 714 -57 714 -57 704 -68 c 128,-1,27
 694 -79 694 -79 679 -79 c 2,28,-1
 393 -79 l 2,29,30
 378 -79 378 -79 368 -68 c 128,-1,31
 358 -57 358 -57 357 -43 c 0,32,33
 357 -35 357 -35 366 -18 c 128,-1,34
 375 -1 375 -1 384 21 c 128,-1,35
 393 43 393 43 393 64 c 1,36,-1
 89 64 l 2,37,38
 53 64 53 64 26 91 c 128,-1,39
 -1 118 -1 118 0 154 c 2,40,-1
 0 761 l 2,41,42
 0 798 0 798 26 824 c 128,-1,43
 52 850 52 850 89 850 c 2,44,-1
 982 850 l 2,45,46
 1019 850 1019 850 1045 824 c 128,-1,47
 1071 798 1071 798 1071 761 c 2,16,-1
EndSplineSet
EndChar

StartChar: copy
Encoding: 61637 61637 47
Width: 1000
Flags: W
LayerCount: 2
Fore
SplineSet
946 636 m 2,0,1
 969 636 969 636 984 620 c 128,-1,2
 999 604 999 604 1000 582 c 2,3,-1
 1000 -96 l 2,4,5
 1000 -119 1000 -119 984 -134 c 128,-1,6
 968 -149 968 -149 946 -150 c 2,7,-1
 411 -150 l 2,8,9
 388 -150 388 -150 373 -134 c 128,-1,10
 358 -118 358 -118 357 -96 c 2,11,-1
 357 64 l 1,12,-1
 54 64 l 2,13,14
 31 64 31 64 16 80 c 128,-1,15
 1 96 1 96 0 118 c 2,16,-1
 0 493 l 2,17,18
 0 515 0 515 11 542 c 128,-1,19
 22 569 22 569 38 584 c 2,20,-1
 266 812 l 2,21,22
 281 828 281 828 308 839 c 128,-1,23
 335 850 335 850 357 850 c 2,24,-1
 589 850 l 2,25,26
 612 850 612 850 627 834 c 128,-1,27
 642 818 642 818 643 796 c 2,28,-1
 643 613 l 1,29,30
 681 636 681 636 714 636 c 2,31,-1
 946 636 l 2,0,1
643 517 m 1,32,-1
 476 350 l 1,33,-1
 643 350 l 1,34,-1
 643 517 l 1,32,-1
286 731 m 1,35,-1
 119 564 l 1,36,-1
 286 564 l 1,37,-1
 286 731 l 1,35,-1
395 370 m 2,38,-1
 571 546 l 1,39,-1
 571 779 l 1,40,-1
 357 779 l 1,41,-1
 357 546 l 2,42,43
 357 524 357 524 342 509 c 128,-1,44
 327 494 327 494 304 493 c 2,45,-1
 71 493 l 1,46,-1
 71 136 l 1,47,-1
 357 136 l 1,48,-1
 357 279 l 2,49,50
 357 301 357 301 368 328 c 128,-1,51
 379 355 379 355 395 370 c 2,38,-1
929 -79 m 1,52,-1
 929 564 l 1,53,-1
 714 564 l 1,54,-1
 714 332 l 2,55,56
 714 310 714 310 699 294 c 128,-1,57
 684 278 684 278 661 279 c 2,58,-1
 429 279 l 1,59,-1
 429 -79 l 1,60,-1
 929 -79 l 1,52,-1
EndSplineSet
EndChar
